<?xml version="1.0" encoding="UTF-8" standalone="no"?>
<svg xmlns:xlink="http://www.w3.org/1999/xlink" height="105.4px" width="338.45px" xmlns="http://www.w3.org/2000/svg">
  <g transform="matrix(1.0, 0.0, 0.0, 1.0, 169.05, 53.05)">
    <use height="101.6" transform="matrix(0.65, 0.0, 0.0, 0.65, -169.0544, -53.0289)" width="520.7" xlink:href="#sprite0"/>
    <use height="47.6" transform="matrix(0.65, 0.0, 0.0, 0.65, -104.154, 21.398)" width="319.65" xlink:href="#sprite1"/>
  </g>
  <defs>
    <g id="sprite0" transform="matrix(1.0, 0.0, 0.0, 1.0, 260.4, 51.2)">
      <use height="100.6" transform="matrix(1.0, 0.0, 0.0, 1.0, -260.4, -50.2)" width="520.2" xlink:href="#shape0"/>
    </g>
    <g id="shape0" transform="matrix(1.0, 0.0, 0.0, 1.0, 260.4, 50.2)">
      <path d="M183.25 39.4 Q181.1 42.3 178.2 44.4 170.0 50.35 159.9 50.35 153.2 50.35 147.2 47.6 143.1 45.85 140.5 42.1 135.2 34.65 135.4 25.25 L135.85 -0.7 Q135.9 -3.15 135.35 -5.35 134.7 -7.95 132.4 -8.4 L127.45 -7.95 Q124.85 -7.8 123.5 -9.85 121.3 -13.05 122.25 -17.0 122.6 -18.5 123.4 -19.75 125.7 -23.15 129.95 -22.9 139.35 -21.8 148.6 -23.35 153.15 -23.95 153.5 -19.45 L153.65 -15.65 153.45 20.7 Q153.4 25.55 155.15 29.9 156.5 33.25 160.05 34.65 167.45 37.35 174.05 32.75 177.95 30.0 179.35 25.45 180.4 21.95 180.35 18.3 L180.1 -0.95 180.0 -4.15 Q179.85 -6.0 178.75 -7.2 178.15 -7.8 177.4 -7.9 174.65 -8.25 171.6 -7.95 169.05 -7.8 167.65 -9.85 166.0 -12.4 165.95 -15.35 165.9 -17.75 167.45 -19.8 169.9 -23.1 174.2 -22.9 183.55 -21.8 192.8 -23.35 194.45 -23.55 196.05 -22.8 196.85 -22.35 197.2 -21.6 198.45 -18.9 198.4 -15.8 198.0 7.15 197.75 30.15 197.75 31.9 198.25 33.6 198.6 34.8 199.7 35.2 202.05 36.1 204.45 35.15 206.65 34.25 208.75 35.4 211.6 37.0 212.05 40.2 212.7 44.45 209.9 47.45 209.25 48.1 208.35 48.35 201.75 49.15 194.85 48.05 L193.6 48.15 Q189.75 49.15 185.75 48.3 L184.7 47.5 Q182.8 43.8 183.25 39.4 M115.15 -38.6 Q111.75 -39.0 108.55 -37.95 104.2 -36.6 103.65 -31.9 103.1 -27.3 103.95 -22.7 L104.4 -22.45 113.5 -22.4 Q116.15 -22.25 117.85 -20.4 120.9 -17.05 119.0 -12.95 118.05 -10.9 115.95 -10.35 110.8 -9.05 105.35 -9.75 L104.4 -9.35 104.25 -8.55 104.15 30.15 Q104.15 32.0 104.7 33.6 105.75 36.7 109.2 35.7 111.8 34.85 114.3 34.85 116.8 34.8 118.2 36.8 120.75 40.55 119.45 45.05 119.15 46.05 118.35 46.8 115.25 49.6 111.05 49.0 L93.15 48.05 86.0 48.85 76.5 48.3 Q74.7 47.95 73.85 46.6 71.1 42.25 73.3 37.65 74.35 35.5 76.75 35.05 L82.35 35.35 Q86.45 36.2 86.45 31.5 L86.3 -8.55 86.2 -9.45 85.85 -9.65 80.4 -9.75 Q78.3 -9.75 76.8 -10.85 72.0 -14.3 74.95 -19.45 75.95 -21.15 77.85 -21.65 82.25 -22.7 86.2 -22.7 86.25 -28.5 87.25 -34.25 88.4 -40.6 93.5 -44.5 99.25 -48.95 106.35 -49.8 116.5 -51.3 125.55 -47.3 132.85 -44.05 132.5 -36.2 132.45 -34.4 131.6 -32.9 129.05 -28.3 123.85 -28.3 121.1 -28.3 118.8 -29.95 114.35 -32.9 115.15 -38.6 M-20.0 48.5 L-23.15 48.1 Q-24.2 47.85 -24.95 47.15 -27.8 44.5 -28.75 40.8 -34.35 19.1 -39.6 -3.55 -40.25 -6.25 -41.6 -8.45 L-42.55 -9.2 Q-45.95 -10.2 -49.25 -9.75 -50.3 -10.0 -51.05 -10.7 -53.35 -13.05 -53.25 -16.55 L-53.05 -18.0 Q-52.25 -22.4 -47.8 -23.15 L-45.25 -22.95 -33.0 -22.25 -16.65 -23.15 Q-12.45 -22.6 -11.4 -18.65 L-11.25 -17.95 -11.2 -16.4 Q-11.15 -14.3 -11.95 -12.65 -13.05 -10.5 -15.4 -10.15 L-20.4 -10.3 Q-21.45 -10.3 -22.3 -9.7 L-22.5 -9.25 -22.65 -8.7 Q-23.0 -7.3 -22.7 -5.7 -19.15 13.1 -14.9 32.15 -9.75 9.05 -4.85 -14.05 -4.05 -17.75 -1.8 -20.9 L-0.65 -21.95 Q5.15 -24.85 11.8 -24.05 L13.3 -23.95 14.7 -23.8 17.7 -22.95 Q18.85 -22.5 19.65 -21.45 21.55 -18.85 22.2 -15.85 L32.3 32.3 40.55 -4.8 Q41.05 -7.1 40.1 -9.4 L39.75 -9.95 34.45 -10.0 33.3 -10.15 Q28.6 -11.4 28.8 -16.4 29.05 -22.3 34.7 -23.1 36.9 -23.35 39.3 -23.05 L48.65 -22.55 54.8 -22.95 65.8 -23.3 Q68.5 -22.85 69.9 -20.4 72.8 -15.25 68.7 -10.8 L67.85 -10.25 Q66.9 -9.9 65.95 -9.9 L62.05 -10.1 Q60.7 -10.2 59.95 -9.25 58.55 -7.5 57.95 -5.35 L44.45 42.7 43.5 45.25 Q42.4 47.4 39.95 47.9 L30.35 48.4 27.7 48.4 26.85 48.45 Q20.35 48.6 18.95 42.15 L8.5 -6.55 -1.4 38.25 Q-2.15 41.65 -3.4 45.0 -4.45 47.9 -7.4 48.4 -13.9 48.85 -20.0 48.5 M-93.35 -9.85 Q-90.35 -4.5 -94.4 -0.05 -97.85 3.85 -103.15 3.35 -109.4 2.65 -111.7 -3.05 -113.95 -8.7 -110.65 -13.7 -107.15 -18.95 -100.95 -21.0 -96.55 -22.55 -91.9 -23.25 -81.15 -25.15 -70.4 -23.05 -67.5 -22.4 -64.85 -20.8 -55.2 -14.75 -55.35 -3.05 -55.55 13.9 -55.1 30.25 -55.05 31.55 -54.4 32.8 L-53.4 33.65 Q-49.75 35.05 -46.0 34.8 -44.65 35.25 -43.7 36.6 -40.9 40.65 -42.85 45.25 -43.55 46.9 -45.15 47.8 -49.45 50.05 -54.45 49.55 -57.95 49.75 -61.3 48.7 -67.5 46.65 -68.75 39.9 -73.7 45.8 -81.1 48.1 -90.7 51.05 -100.6 49.05 -104.95 48.05 -108.7 45.45 -110.3 44.25 -111.5 42.65 -117.8 34.55 -116.1 24.15 -115.65 21.4 -114.25 19.0 -109.15 10.35 -98.85 8.4 L-80.25 4.6 Q-75.6 3.7 -73.95 -0.5 -72.05 -5.45 -75.3 -9.6 -76.4 -10.95 -78.2 -11.55 -86.0 -14.15 -93.35 -9.85 M-134.4 -9.75 Q-138.45 -7.05 -140.6 -2.7 -143.3 2.9 -143.45 9.05 L-143.6 30.15 -143.55 32.6 Q-143.5 35.35 -140.95 35.75 L-136.55 35.05 Q-133.75 34.2 -131.45 36.1 -128.5 38.65 -128.9 42.85 -129.4 48.3 -134.8 48.95 L-135.7 49.05 -156.45 48.2 -161.95 48.55 Q-166.7 49.35 -171.3 48.35 -172.6 48.05 -173.5 46.95 -176.85 42.7 -174.4 37.7 -172.75 34.3 -168.95 34.7 L-165.05 35.45 Q-161.75 36.0 -161.65 32.6 -161.1 15.45 -161.4 -0.7 L-161.55 -4.05 Q-161.7 -6.4 -163.45 -7.7 L-164.85 -7.75 -171.25 -8.05 Q-172.3 -8.2 -173.1 -9.1 -176.7 -12.95 -175.0 -18.35 -173.8 -22.1 -169.9 -22.75 L-161.65 -22.4 -158.3 -22.5 -151.6 -23.25 Q-148.7 -22.8 -148.4 -19.9 -147.8 -14.55 -148.05 -9.15 -145.55 -14.15 -141.5 -18.05 -133.75 -25.55 -123.5 -23.75 -119.3 -22.85 -117.1 -19.0 -114.5 -14.35 -116.95 -9.5 -119.35 -4.9 -124.4 -4.2 -131.05 -3.85 -134.4 -9.75 M-226.7 -9.65 Q-229.25 -9.65 -231.5 -8.7 -238.05 -5.75 -240.15 1.3 -242.9 10.4 -241.5 19.85 -240.45 26.85 -235.55 32.0 -233.8 33.8 -231.4 34.65 -223.75 37.0 -217.3 32.3 -213.05 29.2 -211.75 24.1 -209.9 16.95 -210.05 9.45 -210.15 4.7 -212.05 0.5 -216.4 -9.0 -226.7 -9.65 M-209.9 -26.7 Q-209.85 -28.9 -210.4 -31.35 -211.05 -34.0 -213.55 -34.35 L-220.0 -33.85 Q-221.4 -34.15 -222.25 -35.3 -225.2 -39.45 -223.45 -44.5 -222.05 -48.4 -217.95 -48.85 L-206.2 -48.2 -202.9 -48.7 Q-198.45 -49.9 -194.3 -48.6 -192.9 -48.3 -192.6 -46.8 -191.95 -43.95 -192.1 -41.15 L-192.45 29.3 Q-192.45 31.1 -191.85 32.7 -190.7 36.05 -187.15 34.7 L-185.0 34.05 -182.75 34.45 Q-177.6 36.5 -178.2 42.3 -178.35 44.1 -179.45 45.5 -182.35 49.05 -187.3 48.3 -195.75 46.75 -204.05 47.85 -206.8 47.95 -207.7 45.55 -208.75 42.55 -208.3 39.0 -210.65 42.15 -213.5 44.9 -215.2 46.5 -217.4 47.5 -226.45 51.85 -236.4 49.65 -245.95 47.45 -251.8 39.7 -257.5 32.2 -259.3 22.95 -261.15 13.7 -259.9 4.3 -258.5 -6.1 -252.0 -14.25 -246.15 -21.6 -236.95 -23.65 -226.45 -25.95 -216.8 -20.8 -212.9 -18.7 -209.9 -15.25 L-209.9 -26.7 M214.45 42.1 Q213.7 35.9 219.9 34.9 L221.95 35.05 224.15 35.7 Q225.9 36.2 227.1 34.85 L227.9 33.55 Q228.45 31.9 228.45 30.15 L228.45 -26.7 Q228.95 -30.9 226.15 -33.55 225.6 -34.1 224.8 -34.35 L219.65 -33.75 Q214.65 -34.2 214.25 -39.5 214.15 -41.25 214.45 -42.95 L214.95 -44.45 Q217.05 -49.1 222.45 -49.0 L234.35 -48.2 241.15 -49.25 Q244.35 -49.7 245.9 -47.25 L246.25 -46.25 Q246.6 -43.7 246.55 -41.15 L246.15 30.15 Q245.75 33.2 247.8 35.3 248.4 35.95 249.25 35.6 252.85 34.05 256.45 35.45 258.25 36.2 258.9 37.8 260.4 41.35 259.4 45.05 L259.1 45.65 Q256.35 49.8 251.15 49.0 237.6 47.25 224.0 48.75 L222.15 49.05 Q215.85 49.45 214.55 43.35 L214.45 42.1 M-73.15 13.55 Q-76.5 15.9 -80.6 16.7 -87.4 18.15 -93.95 20.7 -95.6 21.35 -96.7 22.7 -99.2 25.65 -98.25 29.45 -96.9 35.0 -90.8 35.5 -83.85 36.35 -78.35 32.4 -74.15 29.35 -73.4 24.1 -72.6 18.85 -73.15 13.55" fill="#fff" fill-rule="evenodd" stroke="none"/>
    </g>
    <g id="sprite1" transform="matrix(1.0, 0.0, 0.0, 1.0, 161.55, 22.85)">
      <use height="40.25" transform="matrix(0.9998, 0.0173, -0.0173, 0.9998, -159.9985, -20.8517)" width="41.05" xlink:href="#sprite2"/>
      <use height="40.5" transform="matrix(0.9931, 0.1171, -0.1171, 0.9931, -103.6526, -19.7476)" width="36.55" xlink:href="#sprite3"/>
      <use height="39.5" transform="matrix(0.995, -0.0996, 0.0996, 0.995, -54.8317, -18.9395)" width="14.3" xlink:href="#sprite4"/>
      <use height="40.1" transform="matrix(0.9978, 0.0659, -0.0659, 0.9978, -21.381, -21.0367)" width="43.45" xlink:href="#sprite5"/>
      <use height="40.25" transform="matrix(0.9982, -0.0605, 0.0605, 0.9982, 31.4218, -18.7732)" width="41.05" xlink:href="#sprite6"/>
      <use height="39.85" transform="matrix(0.9969, 0.0782, -0.0782, 0.9969, 83.105, -20.5051)" width="32.4" xlink:href="#sprite7"/>
      <use height="39.9" transform="matrix(0.9951, -0.0993, 0.0993, 0.9951, 125.5898, -18.5264)" width="28.7" xlink:href="#sprite8"/>
    </g>
    <g id="sprite2" transform="matrix(1.0, 0.0, 0.0, 1.0, 20.5, 20.1)">
      <use height="40.25" transform="matrix(1.0, 0.0, 0.0, 1.0, -20.5, -20.1)" width="41.05" xlink:href="#shape1"/>
    </g>
    <g id="shape1" transform="matrix(1.0, 0.0, 0.0, 1.0, 20.5, 20.1)">
      <path d="M-3.5 4.5 L3.15 4.3 -0.4 -7.3 -3.5 4.5 M7.3 20.15 L5.35 13.2 -5.4 13.8 -7.35 19.9 -20.5 18.7 -17.4 9.3 -14.15 -0.3 -7.75 -19.35 6.4 -20.1 20.55 18.35 7.3 20.15" fill="#a21f84" fill-rule="evenodd" stroke="none"/>
    </g>
    <g id="sprite3" transform="matrix(1.0, 0.0, 0.0, 1.0, 18.25, 20.25)">
      <use height="40.5" transform="matrix(1.0, 0.0, 0.0, 1.0, -18.25, -20.25)" width="36.55" xlink:href="#shape2"/>
    </g>
    <g id="shape2" transform="matrix(1.0, 0.0, 0.0, 1.0, 18.25, 20.25)">
      <path d="M17.7 -19.45 L18.3 18.6 6.55 20.25 -5.55 0.4 -5.35 19.8 -18.25 19.35 -17.65 -19.15 -5.9 -20.25 4.95 -0.95 5.4 -1.0 4.95 -19.55 6.95 -19.55 9.3 -19.5 11.25 -19.5 14.45 -19.45 17.7 -19.45" fill="#b51d29" fill-rule="evenodd" stroke="none"/>
    </g>
    <g id="sprite4" transform="matrix(1.0, 0.0, 0.0, 1.0, 7.15, 19.75)">
      <use height="39.5" transform="matrix(1.0, 0.0, 0.0, 1.0, -7.15, -19.75)" width="14.3" xlink:href="#shape3"/>
    </g>
    <g id="shape3" transform="matrix(1.0, 0.0, 0.0, 1.0, 7.15, 19.75)">
      <path d="M-7.15 -19.45 L7.15 -19.75 6.75 19.3 -6.95 19.75 -7.15 -19.45" fill="#c1600b" fill-rule="evenodd" stroke="none"/>
    </g>
    <g id="sprite5" transform="matrix(1.0, 0.0, 0.0, 1.0, 21.7, 20.05)">
      <use height="40.1" transform="matrix(1.0, 0.0, 0.0, 1.0, -21.7, -20.05)" width="43.45" xlink:href="#shape4"/>
    </g>
    <g id="shape4" transform="matrix(1.0, 0.0, 0.0, 1.0, 21.7, 20.05)">
      <path d="M-21.7 19.8 L-19.2 -18.4 -7.75 -19.85 -0.15 -5.25 7.3 -20.05 18.7 -19.2 21.75 19.25 8.8 19.7 7.85 -0.8 7.45 -0.85 4.55 7.85 -5.0 7.95 -7.55 -0.25 -8.0 -0.15 -9.2 20.05 -21.7 19.8" fill="#a09231" fill-rule="evenodd" stroke="none"/>
    </g>
    <g id="sprite6" transform="matrix(1.0, 0.0, 0.0, 1.0, 20.5, 20.1)">
      <use height="40.25" transform="matrix(1.0, 0.0, 0.0, 1.0, -20.5, -20.1)" width="41.05" xlink:href="#shape5"/>
    </g>
    <g id="shape5" transform="matrix(1.0, 0.0, 0.0, 1.0, 20.5, 20.1)">
      <path d="M-3.5 4.5 L3.15 4.3 -0.4 -7.3 -3.5 4.5 M7.3 20.15 L5.35 13.2 -5.4 13.8 -7.35 19.9 -20.5 18.7 -17.4 9.3 -14.15 -0.3 -7.75 -19.35 6.4 -20.1 20.55 18.35 7.3 20.15" fill="#4f8c45" fill-rule="evenodd" stroke="none"/>
    </g>
    <g id="sprite7" transform="matrix(1.0, 0.0, 0.0, 1.0, 16.2, 19.9)">
      <use height="39.85" transform="matrix(1.0, 0.0, 0.0, 1.0, -16.2, -19.9)" width="32.4" xlink:href="#shape6"/>
    </g>
    <g id="shape6" transform="matrix(1.0, 0.0, 0.0, 1.0, 16.2, 19.9)">
      <path d="M16.2 -8.65 L6.6 -8.55 7.1 19.55 0.25 19.75 -3.1 19.9 -6.5 19.95 -6.2 -8.35 -16.2 -7.95 -16.0 -19.55 15.9 -19.9 16.2 -8.65" fill="#208a71" fill-rule="evenodd" stroke="none"/>
    </g>
    <g id="sprite8" transform="matrix(1.0, 0.0, 0.0, 1.0, 14.35, 19.95)">
      <use height="39.9" transform="matrix(1.0, 0.0, 0.0, 1.0, -14.35, -19.95)" width="28.7" xlink:href="#shape7"/>
    </g>
    <g id="shape7" transform="matrix(1.0, 0.0, 0.0, 1.0, 14.35, 19.95)">
      <path d="M14.35 8.65 L14.1 19.95 -14.35 19.55 -13.8 -19.3 -7.1 -19.45 -0.4 -19.6 12.95 -19.95 13.3 -9.45 -1.35 -9.7 -1.35 -5.1 0.7 -5.15 3.95 -5.25 9.7 -5.45 9.8 4.2 -1.35 4.2 -1.35 8.95 0.7 8.95 3.55 8.9 7.85 8.8 14.35 8.65" fill="#2f6ba8" fill-rule="evenodd" stroke="none"/>
    </g>
  </defs>
</svg>
