<?xml version="1.0" encoding="UTF-8" standalone="no"?>
<svg xmlns:xlink="http://www.w3.org/1999/xlink" height="69.25px" width="282.95px" xmlns="http://www.w3.org/2000/svg">
  <g transform="matrix(1.0, 0.0, 0.0, 1.0, 138.9, 74.4)">
    <use height="43.45" transform="matrix(1.0, 0.0, 0.0, 1.0, -138.9, -62.75)" width="215.35" xlink:href="#shape0"/>
    <use height="6.9" transform="matrix(1.0, 0.0, 0.0, 1.0, 131.55, -59.85)" width="12.5" xlink:href="#text0"/>
    <use height="69.25" transform="matrix(1.0, 0.0, 0.0, 1.0, 77.95, -74.4)" width="53.3" xlink:href="#shape1"/>
  </g>
  <defs>
    <g id="shape0" transform="matrix(1.0, 0.0, 0.0, 1.0, 138.9, 62.75)">
      <path d="M-116.15 -61.05 L-114.6 -61.15 -113.05 -61.25 Q-111.4 -61.25 -111.4 -58.9 L-111.8 -46.05 -111.7 -30.35 Q-111.6 -26.3 -111.35 -25.5 -111.05 -24.55 -109.9 -24.55 L-108.7 -24.65 -107.4 -24.75 Q-105.25 -24.75 -105.25 -22.8 -105.25 -20.8 -107.9 -20.8 L-111.5 -21.1 -112.85 -21.0 -114.1 -20.8 Q-115.7 -20.8 -115.7 -22.95 L-115.65 -24.25 Q-118.8 -20.05 -124.8 -20.05 -130.8 -20.05 -134.5 -24.4 -138.15 -28.8 -138.15 -35.9 -138.15 -43.05 -134.55 -47.4 -130.95 -51.65 -124.9 -51.65 -119.0 -51.65 -116.15 -47.1 L-116.15 -53.1 -116.25 -56.0 Q-116.55 -57.85 -117.9 -57.85 L-120.55 -57.5 Q-122.75 -57.5 -122.75 -59.35 -122.75 -61.35 -119.8 -61.35 L-116.15 -61.05 M-133.35 -36.05 Q-133.35 -30.35 -130.95 -27.15 -128.5 -23.95 -124.3 -23.95 -121.1 -23.95 -118.95 -25.8 -116.8 -27.7 -116.5 -30.75 -116.25 -32.9 -116.25 -35.8 -116.25 -39.75 -116.55 -41.2 -117.1 -44.15 -119.1 -45.8 -121.4 -47.75 -124.55 -47.75 -128.65 -47.75 -131.05 -44.6 -133.35 -41.55 -133.35 -36.05" fill="#fff" fill-rule="evenodd" stroke="none"/>
      <path d="M-130.45 -44.15 Q-132.6 -41.25 -132.6 -36.05 -132.6 -30.65 -130.35 -27.6 -128.1 -24.7 -124.3 -24.7 -121.4 -24.7 -119.45 -26.35 -117.55 -28.1 -117.25 -30.85 -117.0 -32.4 -117.0 -35.8 -117.0 -39.7 -117.3 -41.05 -117.75 -43.75 -119.55 -45.25 -121.65 -47.0 -124.55 -47.0 -128.35 -47.0 -130.45 -44.15 M-133.35 -36.05 Q-133.35 -41.55 -131.05 -44.6 -128.65 -47.75 -124.55 -47.75 -121.4 -47.75 -119.1 -45.8 -117.1 -44.15 -116.55 -41.2 -116.25 -39.75 -116.25 -35.8 -116.25 -32.9 -116.5 -30.75 -116.8 -27.7 -118.95 -25.8 -121.1 -23.95 -124.3 -23.95 -128.5 -23.95 -130.95 -27.15 -133.35 -30.35 -133.35 -36.05 M-113.05 -61.25 L-114.6 -61.15 -116.15 -61.05 -119.8 -61.35 Q-122.75 -61.35 -122.75 -59.35 -122.75 -57.5 -120.55 -57.5 L-117.9 -57.85 Q-116.55 -57.85 -116.25 -56.0 L-116.15 -53.1 -116.15 -47.1 Q-119.0 -51.65 -124.9 -51.65 -130.95 -51.65 -134.55 -47.4 -138.15 -43.05 -138.15 -35.9 -138.15 -28.8 -134.5 -24.4 -130.8 -20.05 -124.8 -20.05 -118.8 -20.05 -115.65 -24.25 L-115.7 -22.95 Q-115.7 -20.8 -114.1 -20.8 L-112.85 -21.0 -111.5 -21.1 -107.9 -20.8 Q-105.25 -20.8 -105.25 -22.8 -105.25 -24.75 -107.4 -24.75 L-108.7 -24.65 -109.9 -24.55 Q-111.05 -24.55 -111.35 -25.5 -111.6 -26.3 -111.7 -30.35 L-111.8 -46.05 -111.4 -58.9 Q-111.4 -61.25 -113.05 -61.25 M-119.8 -62.1 L-116.15 -61.8 -114.7 -61.9 -113.05 -62.0 Q-110.65 -62.0 -110.65 -58.9 L-110.95 -30.35 Q-110.9 -26.6 -110.6 -25.7 L-109.9 -25.3 -108.95 -25.35 -108.85 -25.4 -107.4 -25.5 Q-104.5 -25.5 -104.5 -22.8 -104.5 -20.05 -107.9 -20.05 L-111.5 -20.35 -112.75 -20.25 -114.1 -20.05 Q-116.1 -20.05 -116.4 -22.25 -119.65 -19.3 -124.8 -19.3 -131.2 -19.3 -135.05 -23.95 -138.9 -28.55 -138.9 -35.9 -138.9 -43.35 -135.15 -47.85 -131.35 -52.4 -124.9 -52.4 -119.9 -52.4 -116.9 -49.3 L-116.9 -53.1 -117.0 -55.9 Q-117.2 -57.1 -117.9 -57.1 L-120.55 -56.75 Q-123.5 -56.75 -123.5 -59.35 -123.5 -62.1 -119.8 -62.1" fill="#fff" fill-rule="evenodd" stroke="none"/>
      <path d="M-93.7 -48.95 L-93.7 -47.35 Q-90.6 -51.65 -85.45 -51.65 -81.3 -51.65 -78.7 -49.35 -76.15 -46.95 -76.15 -43.3 -76.15 -40.6 -77.45 -39.1 -78.7 -37.45 -80.9 -37.45 -82.2 -37.45 -83.2 -38.3 -84.15 -39.15 -84.15 -40.3 -84.15 -41.2 -83.45 -42.0 -82.75 -42.7 -81.75 -42.7 L-81.0 -42.55 Q-80.65 -43.2 -80.65 -43.85 -80.65 -45.55 -82.15 -46.75 -83.65 -47.95 -85.9 -47.95 -90.5 -47.95 -92.1 -43.8 -93.0 -41.25 -93.0 -36.1 L-92.95 -27.75 Q-92.65 -24.35 -91.15 -24.35 L-89.55 -24.6 -88.4 -24.75 Q-86.5 -24.75 -86.5 -22.9 -86.5 -20.8 -88.95 -20.8 L-89.15 -20.8 -94.55 -21.2 -98.3 -21.1 -101.6 -20.8 Q-104.05 -20.8 -104.05 -22.9 -104.05 -24.7 -101.8 -24.7 L-100.9 -24.65 -99.2 -24.35 Q-97.65 -24.35 -97.6 -27.1 L-97.65 -43.55 Q-97.8 -47.05 -99.4 -47.05 L-100.75 -46.85 -102.05 -46.7 Q-104.0 -46.7 -104.0 -48.6 -104.0 -50.65 -101.45 -50.65 L-97.9 -50.35 -95.2 -50.6 Q-93.7 -50.6 -93.7 -48.95" fill="#fff" fill-rule="evenodd" stroke="none"/>
      <path d="M-95.2 -51.35 Q-93.2 -51.35 -92.95 -49.35 -89.95 -52.4 -85.45 -52.4 -81.0 -52.4 -78.2 -49.9 -75.4 -47.35 -75.4 -43.3 -75.4 -40.5 -76.85 -38.6 -78.35 -36.7 -80.9 -36.7 -82.45 -36.7 -83.7 -37.7 -84.9 -38.75 -84.9 -40.3 -84.9 -41.55 -83.95 -42.5 -83.05 -43.45 -81.75 -43.45 L-81.45 -43.45 -81.4 -43.85 Q-81.4 -45.15 -82.6 -46.15 -83.95 -47.2 -85.9 -47.2 -90.0 -47.2 -91.35 -43.55 -92.25 -41.05 -92.25 -36.1 L-92.2 -27.8 Q-91.95 -25.1 -91.15 -25.1 L-89.75 -25.3 -88.4 -25.5 Q-85.75 -25.5 -85.75 -22.9 -85.75 -20.05 -88.95 -20.05 L-89.15 -20.05 -94.55 -20.45 -98.25 -20.35 -101.55 -20.05 -101.6 -20.05 Q-104.8 -20.05 -104.8 -22.9 -104.8 -23.8 -104.3 -24.45 -103.55 -25.45 -101.8 -25.45 L-100.75 -25.4 -99.2 -25.1 Q-98.45 -25.1 -98.35 -27.1 L-98.4 -43.5 Q-98.55 -46.3 -99.4 -46.3 L-100.55 -46.15 -102.05 -45.95 Q-104.75 -45.95 -104.75 -48.6 -104.75 -51.4 -101.45 -51.4 L-97.9 -51.1 -95.2 -51.35 M-93.7 -48.95 Q-93.7 -50.6 -95.2 -50.6 L-97.9 -50.35 -101.45 -50.65 Q-104.0 -50.65 -104.0 -48.6 -104.0 -46.7 -102.05 -46.7 L-100.75 -46.85 -99.4 -47.05 Q-97.8 -47.05 -97.65 -43.55 L-97.6 -27.1 Q-97.65 -24.35 -99.2 -24.35 L-100.9 -24.65 -101.8 -24.7 Q-104.05 -24.7 -104.05 -22.9 -104.05 -20.8 -101.6 -20.8 L-98.3 -21.1 -94.55 -21.2 -89.15 -20.8 -88.95 -20.8 Q-86.5 -20.8 -86.5 -22.9 -86.5 -24.75 -88.4 -24.75 L-89.55 -24.6 -91.15 -24.35 Q-92.65 -24.35 -92.95 -27.75 L-93.0 -36.1 Q-93.0 -41.25 -92.1 -43.8 -90.5 -47.95 -85.9 -47.95 -83.65 -47.95 -82.15 -46.75 -80.65 -45.55 -80.65 -43.85 -80.65 -43.2 -81.0 -42.55 L-81.75 -42.7 Q-82.75 -42.7 -83.45 -42.0 -84.15 -41.2 -84.15 -40.3 -84.15 -39.15 -83.2 -38.3 -82.2 -37.45 -80.9 -37.45 -78.7 -37.45 -77.45 -39.1 -76.15 -40.6 -76.15 -43.3 -76.15 -46.95 -78.7 -49.35 -81.3 -51.65 -85.45 -51.65 -90.6 -51.65 -93.7 -47.35 L-93.7 -48.95" fill="#fff" fill-rule="evenodd" stroke="none"/>
      <path d="M-73.2 -43.6 Q-73.2 -46.9 -69.9 -49.3 -66.65 -51.65 -61.9 -51.65 -51.15 -51.65 -51.15 -41.3 L-51.15 -29.35 -51.0 -25.95 Q-50.7 -23.9 -49.0 -23.9 -46.95 -23.9 -46.95 -27.65 L-46.95 -30.6 Q-46.95 -32.45 -45.1 -32.45 -43.15 -32.45 -43.15 -29.65 L-43.2 -25.95 Q-43.35 -20.25 -49.25 -20.25 -54.15 -20.25 -55.25 -24.5 -58.2 -20.05 -64.7 -20.05 -69.55 -20.05 -72.4 -22.4 -75.25 -24.8 -75.25 -28.75 -75.25 -33.7 -71.05 -35.95 -69.45 -36.85 -68.3 -37.1 L-63.65 -37.8 Q-58.65 -38.3 -57.15 -39.3 -55.65 -40.2 -55.65 -42.8 -55.65 -45.25 -57.35 -46.6 -58.95 -48.0 -62.05 -48.0 -64.75 -48.0 -67.0 -46.5 -67.9 -45.9 -67.9 -45.25 L-67.35 -44.7 Q-66.55 -44.1 -66.55 -42.65 -66.55 -41.45 -67.4 -40.7 -68.2 -39.95 -69.55 -39.95 -71.1 -39.95 -72.15 -41.0 -73.2 -42.05 -73.2 -43.6 M-63.7 -33.8 Q-70.45 -33.1 -70.45 -28.8 -70.45 -26.5 -68.8 -25.25 -67.2 -23.95 -64.4 -23.95 -60.45 -23.95 -58.15 -26.1 -55.85 -28.3 -55.8 -32.05 L-55.75 -36.25 Q-57.25 -35.0 -58.5 -34.6 -60.25 -34.05 -63.7 -33.8" fill="#fff" fill-rule="evenodd" stroke="none"/>
      <path d="M-64.4 -24.7 Q-60.75 -24.7 -58.65 -26.65 -56.6 -28.6 -56.55 -32.05 L-56.55 -34.75 Q-57.25 -34.25 -58.3 -33.9 L-63.65 -33.05 Q-69.7 -32.45 -69.7 -28.8 -69.7 -26.9 -68.35 -25.85 -66.9 -24.7 -64.4 -24.7 M-58.15 -26.1 Q-60.45 -23.95 -64.4 -23.95 -67.2 -23.95 -68.8 -25.25 -70.45 -26.5 -70.45 -28.8 -70.45 -33.1 -63.7 -33.8 -60.25 -34.05 -58.5 -34.6 -57.25 -35.0 -55.75 -36.25 L-55.8 -32.05 Q-55.85 -28.3 -58.15 -26.1 M-66.6 -45.9 L-67.1 -45.4 -66.95 -45.3 Q-65.8 -44.45 -65.8 -42.65 -65.8 -41.1 -66.9 -40.15 -67.9 -39.2 -69.55 -39.2 -71.45 -39.2 -72.7 -40.5 -73.95 -41.85 -73.95 -43.6 -73.95 -47.3 -70.35 -49.9 -66.9 -52.4 -61.9 -52.4 -50.4 -52.4 -50.4 -41.3 L-50.4 -29.35 -50.3 -26.1 Q-50.05 -24.65 -49.0 -24.65 -47.7 -24.65 -47.7 -27.65 L-47.7 -30.6 Q-47.7 -33.2 -45.1 -33.2 -42.4 -33.2 -42.4 -29.65 L-42.45 -25.95 Q-42.6 -19.5 -49.25 -19.5 -53.75 -19.5 -55.45 -22.95 -58.65 -19.3 -64.7 -19.3 -69.75 -19.3 -72.85 -21.8 -76.0 -24.4 -76.0 -28.75 -76.0 -34.1 -71.4 -36.6 L-68.45 -37.85 -63.7 -38.55 Q-58.95 -39.1 -57.55 -39.9 -56.4 -40.6 -56.4 -42.8 -56.4 -44.85 -57.8 -46.05 -59.3 -47.25 -62.05 -47.25 -64.5 -47.25 -66.6 -45.9 M-66.55 -42.65 Q-66.55 -44.1 -67.35 -44.7 L-67.9 -45.25 Q-67.9 -45.9 -67.0 -46.5 -64.75 -48.0 -62.05 -48.0 -58.95 -48.0 -57.35 -46.6 -55.65 -45.25 -55.65 -42.8 -55.65 -40.2 -57.15 -39.3 -58.65 -38.3 -63.65 -37.8 L-68.3 -37.1 Q-69.45 -36.85 -71.05 -35.95 -75.25 -33.7 -75.25 -28.75 -75.25 -24.8 -72.4 -22.4 -69.55 -20.05 -64.7 -20.05 -58.2 -20.05 -55.25 -24.5 -54.15 -20.25 -49.25 -20.25 -43.35 -20.25 -43.2 -25.95 L-43.15 -29.65 Q-43.15 -32.45 -45.1 -32.45 -46.95 -32.45 -46.95 -30.6 L-46.95 -27.65 Q-46.95 -23.9 -49.0 -23.9 -50.7 -23.9 -51.0 -25.95 L-51.15 -29.35 -51.15 -41.3 Q-51.15 -51.65 -61.9 -51.65 -66.65 -51.65 -69.9 -49.3 -73.2 -46.9 -73.2 -43.6 -73.2 -42.05 -72.15 -41.0 -71.1 -39.95 -69.55 -39.95 -68.2 -39.95 -67.4 -40.7 -66.55 -41.45 -66.55 -42.65" fill="#fff" fill-rule="evenodd" stroke="none"/>
      <path d="M-6.7 -50.2 L-3.6 -50.35 -1.0 -50.65 Q1.55 -50.65 1.55 -48.65 1.55 -46.7 -0.4 -46.7 L-2.5 -46.95 Q-4.05 -46.95 -5.8 -40.35 L-9.85 -25.15 Q-10.5 -22.4 -11.5 -21.25 -12.45 -20.15 -14.1 -20.15 -17.25 -20.15 -18.3 -25.15 L-22.75 -46.2 -27.4 -25.5 Q-28.0 -22.5 -29.05 -21.3 -30.0 -20.1 -31.75 -20.1 -34.55 -20.1 -35.5 -23.75 L-41.2 -45.1 Q-41.75 -47.0 -42.85 -47.0 L-43.9 -46.8 -45.2 -46.7 Q-47.15 -46.7 -47.15 -48.6 -47.15 -50.65 -44.5 -50.65 L-41.3 -50.25 -39.1 -50.15 -35.3 -50.35 -32.25 -50.65 Q-29.65 -50.65 -29.65 -48.65 -29.65 -46.7 -31.8 -46.7 L-33.3 -46.8 -34.8 -47.05 Q-36.35 -47.05 -36.35 -45.25 L-35.9 -42.35 -31.6 -24.35 -26.95 -45.2 Q-26.3 -48.45 -25.4 -49.65 -24.5 -50.7 -22.75 -50.7 -20.95 -50.7 -20.05 -49.6 -19.15 -48.35 -18.5 -45.2 L-14.05 -24.35 -9.65 -42.35 Q-9.25 -44.2 -9.25 -45.35 L-9.25 -45.45 Q-9.25 -47.05 -10.6 -47.05 L-12.15 -46.85 -13.7 -46.65 Q-15.9 -46.65 -15.9 -48.6 -15.9 -50.65 -13.0 -50.65 L-12.1 -50.6 -6.7 -50.2" fill="#fff" fill-rule="evenodd" stroke="none"/>
      <path d="M-13.0 -51.4 L-12.0 -51.35 -9.55 -51.05 -6.7 -50.95 -3.7 -51.1 -1.8 -51.35 -1.0 -51.4 Q2.3 -51.4 2.3 -48.65 2.3 -47.35 1.6 -46.65 0.9 -45.95 -0.4 -45.95 L-1.6 -46.1 -2.5 -46.2 -3.2 -45.4 Q-4.15 -43.85 -5.1 -40.15 L-9.1 -24.95 Q-9.85 -22.0 -10.95 -20.75 -12.05 -19.4 -14.1 -19.4 -17.85 -19.4 -19.05 -24.95 L-22.8 -42.7 -26.65 -25.3 Q-27.3 -22.2 -28.45 -20.85 -29.7 -19.35 -31.75 -19.35 -35.1 -19.35 -36.2 -23.55 L-41.9 -44.9 Q-42.3 -46.25 -42.85 -46.25 L-43.75 -46.1 -43.75 -46.05 -45.2 -45.95 Q-47.9 -45.95 -47.9 -48.6 -47.9 -51.4 -44.5 -51.4 L-43.7 -51.35 -41.2 -51.0 -39.1 -50.9 -35.4 -51.1 -32.25 -51.4 Q-28.9 -51.4 -28.9 -48.65 -28.9 -45.95 -31.8 -45.95 L-33.4 -46.05 -33.45 -46.05 -33.55 -46.1 -34.8 -46.3 Q-35.6 -46.3 -35.6 -45.25 L-35.2 -42.55 -31.6 -27.7 -27.7 -45.35 Q-26.95 -48.85 -26.0 -50.1 -24.85 -51.45 -22.75 -51.45 -20.55 -51.45 -19.45 -50.05 -18.5 -48.8 -17.75 -45.35 L-14.0 -27.75 -10.4 -42.55 Q-10.0 -44.3 -10.0 -45.35 L-10.0 -45.45 Q-10.0 -46.3 -10.6 -46.3 L-12.0 -46.1 -13.7 -45.9 Q-16.65 -45.9 -16.65 -48.6 -16.65 -51.4 -13.0 -51.4 M-6.7 -50.2 L-12.1 -50.6 -13.0 -50.65 Q-15.9 -50.65 -15.9 -48.6 -15.9 -46.65 -13.7 -46.65 L-12.15 -46.85 -10.6 -47.05 Q-9.25 -47.05 -9.25 -45.45 L-9.25 -45.35 Q-9.25 -44.2 -9.65 -42.35 L-14.05 -24.35 -18.5 -45.2 Q-19.15 -48.35 -20.05 -49.6 -20.95 -50.7 -22.75 -50.7 -24.5 -50.7 -25.4 -49.65 -26.3 -48.45 -26.95 -45.2 L-31.6 -24.35 -35.9 -42.35 -36.35 -45.25 Q-36.35 -47.05 -34.8 -47.05 L-33.3 -46.8 -31.8 -46.7 Q-29.65 -46.7 -29.65 -48.65 -29.65 -50.65 -32.25 -50.65 L-35.3 -50.35 -39.1 -50.15 -41.3 -50.25 -44.5 -50.65 Q-47.15 -50.65 -47.15 -48.6 -47.15 -46.7 -45.2 -46.7 L-43.9 -46.8 -42.85 -47.0 Q-41.75 -47.0 -41.2 -45.1 L-35.5 -23.75 Q-34.55 -20.1 -31.75 -20.1 -30.0 -20.1 -29.05 -21.3 -28.0 -22.5 -27.4 -25.5 L-22.75 -46.2 -18.3 -25.15 Q-17.25 -20.15 -14.1 -20.15 -12.45 -20.15 -11.5 -21.25 -10.5 -22.4 -9.85 -25.15 L-5.8 -40.35 Q-4.05 -46.95 -2.5 -46.95 L-0.4 -46.7 Q1.55 -46.7 1.55 -48.65 1.55 -50.65 -1.0 -50.65 L-3.6 -50.35 -6.7 -50.2" fill="#fff" fill-rule="evenodd" stroke="none"/>
      <path d="M11.2 -59.5 Q13.7 -62.0 18.25 -62.0 22.0 -62.0 24.2 -60.45 26.45 -58.95 26.45 -56.4 26.45 -55.1 25.65 -54.3 24.85 -53.5 23.55 -53.5 22.35 -53.5 21.6 -54.25 20.8 -55.0 20.8 -56.05 20.8 -56.85 21.4 -57.55 20.3 -58.5 18.4 -58.5 15.9 -58.5 14.4 -56.85 12.95 -55.15 12.95 -52.3 L12.95 -51.25 Q12.95 -50.5 13.75 -50.5 L18.35 -50.5 Q20.3 -50.5 20.3 -48.35 20.3 -46.2 18.35 -46.2 L13.95 -46.2 Q12.95 -46.2 12.95 -45.15 L13.0 -26.0 Q13.3 -24.4 14.5 -24.4 L17.15 -24.85 Q19.2 -24.85 19.2 -22.9 19.2 -20.8 16.75 -20.8 L10.65 -21.3 7.45 -21.1 4.5 -20.8 Q1.95 -20.8 1.95 -22.9 1.95 -23.65 2.55 -24.25 3.25 -24.85 4.0 -24.85 L5.35 -24.6 6.7 -24.4 Q7.8 -24.4 8.1 -25.85 8.35 -27.15 8.45 -32.7 L8.5 -45.15 Q8.5 -46.2 7.45 -46.2 L4.5 -46.2 Q2.4 -46.2 2.4 -48.4 2.4 -50.5 4.55 -50.5 L7.95 -50.5 Q8.7 -50.5 8.7 -51.25 L8.7 -52.3 Q8.7 -57.0 11.2 -59.5" fill="#fff" fill-rule="evenodd" stroke="none"/>
      <path d="M8.7 -52.3 L8.7 -51.25 Q8.7 -50.5 7.95 -50.5 L4.55 -50.5 Q2.4 -50.5 2.4 -48.4 2.4 -46.2 4.5 -46.2 L7.45 -46.2 Q8.5 -46.2 8.5 -45.15 L8.45 -32.7 Q8.35 -27.15 8.1 -25.85 7.8 -24.4 6.7 -24.4 L5.35 -24.6 4.0 -24.85 Q3.25 -24.85 2.55 -24.25 1.95 -23.65 1.95 -22.9 1.95 -20.8 4.5 -20.8 L7.45 -21.1 10.65 -21.3 16.75 -20.8 Q19.2 -20.8 19.2 -22.9 19.2 -24.85 17.15 -24.85 L14.5 -24.4 Q13.3 -24.4 13.0 -26.0 L12.95 -45.15 Q12.95 -46.2 13.95 -46.2 L18.35 -46.2 Q20.3 -46.2 20.3 -48.35 20.3 -50.5 18.35 -50.5 L13.75 -50.5 Q12.95 -50.5 12.95 -51.25 L12.95 -52.3 Q12.95 -55.15 14.4 -56.85 15.9 -58.5 18.4 -58.5 20.3 -58.5 21.4 -57.55 20.8 -56.85 20.8 -56.05 20.8 -55.0 21.6 -54.25 22.35 -53.5 23.55 -53.5 24.85 -53.5 25.65 -54.3 26.45 -55.1 26.45 -56.4 26.45 -58.95 24.2 -60.45 22.0 -62.0 18.25 -62.0 13.7 -62.0 11.2 -59.5 8.7 -57.0 8.7 -52.3 M7.95 -51.25 L7.95 -52.3 Q7.95 -57.35 10.65 -60.0 13.4 -62.75 18.25 -62.75 22.2 -62.75 24.65 -61.1 27.2 -59.35 27.2 -56.4 27.2 -54.8 26.15 -53.75 25.05 -52.75 23.55 -52.75 22.05 -52.75 21.1 -53.7 20.05 -54.65 20.05 -56.05 20.05 -56.75 20.35 -57.35 19.55 -57.75 18.4 -57.75 16.2 -57.75 15.0 -56.35 13.7 -54.9 13.7 -52.3 L13.7 -51.25 18.35 -51.25 Q21.05 -51.25 21.05 -48.35 21.05 -45.45 18.35 -45.45 L13.75 -45.45 13.7 -45.15 13.75 -26.15 Q13.95 -25.15 14.5 -25.15 L15.8 -25.45 15.9 -25.45 17.15 -25.6 Q19.95 -25.6 19.95 -22.9 19.95 -20.05 16.75 -20.05 L10.65 -20.55 7.55 -20.35 4.5 -20.05 Q1.2 -20.05 1.2 -22.9 1.2 -23.95 2.05 -24.8 2.95 -25.6 4.0 -25.6 L5.55 -25.35 6.7 -25.15 Q7.2 -25.15 7.35 -26.0 7.6 -27.25 7.7 -32.7 L7.75 -45.15 7.7 -45.4 7.45 -45.45 4.5 -45.45 Q3.15 -45.45 2.4 -46.25 1.65 -47.0 1.65 -48.4 1.65 -51.25 4.55 -51.25 L7.95 -51.25" fill="#fff" fill-rule="evenodd" stroke="none"/>
      <path d="M25.8 -47.05 L23.5 -46.75 Q21.45 -46.75 21.45 -48.7 21.45 -50.6 24.0 -50.6 L27.5 -50.35 30.3 -50.65 Q32.15 -50.65 32.15 -48.4 L31.9 -35.1 Q31.9 -30.05 32.75 -27.65 34.1 -23.95 39.25 -23.95 41.75 -23.95 43.75 -25.1 45.75 -26.25 46.5 -28.15 47.45 -30.4 47.45 -36.9 L47.45 -44.05 Q47.15 -46.85 45.9 -46.85 L44.85 -46.75 44.15 -46.75 Q42.05 -46.75 42.05 -48.6 42.05 -50.65 44.35 -50.65 L46.0 -50.55 47.6 -50.45 50.45 -50.6 Q52.25 -50.6 52.25 -48.7 L52.15 -47.4 Q51.85 -45.15 51.85 -40.75 L51.9 -27.6 Q52.2 -24.5 53.55 -24.5 L55.9 -24.75 Q57.95 -24.75 57.95 -22.8 57.95 -20.8 55.45 -20.8 L52.05 -21.1 50.8 -21.0 49.6 -20.8 Q47.9 -20.8 47.9 -22.5 L47.9 -24.35 Q44.85 -20.05 38.6 -20.05 31.55 -20.05 28.9 -24.35 27.75 -26.15 27.6 -28.8 L27.55 -38.95 Q27.55 -47.05 25.8 -47.05" fill="#fff" fill-rule="evenodd" stroke="none"/>
      <path d="M32.15 -48.4 Q32.15 -50.65 30.3 -50.65 L27.5 -50.35 24.0 -50.6 Q21.45 -50.6 21.45 -48.7 21.45 -46.75 23.5 -46.75 L25.8 -47.05 Q27.55 -47.05 27.55 -38.95 L27.6 -28.8 Q27.75 -26.15 28.9 -24.35 31.55 -20.05 38.6 -20.05 44.85 -20.05 47.9 -24.35 L47.9 -22.5 Q47.9 -20.8 49.6 -20.8 L50.8 -21.0 52.05 -21.1 55.45 -20.8 Q57.95 -20.8 57.95 -22.8 57.95 -24.75 55.9 -24.75 L53.55 -24.5 Q52.2 -24.5 51.9 -27.6 L51.85 -40.75 Q51.85 -45.15 52.15 -47.4 L52.25 -48.7 Q52.25 -50.6 50.45 -50.6 L47.6 -50.45 46.0 -50.55 44.35 -50.65 Q42.05 -50.65 42.05 -48.6 42.05 -46.75 44.15 -46.75 L44.85 -46.75 45.9 -46.85 Q47.15 -46.85 47.45 -44.05 L47.45 -36.9 Q47.45 -30.4 46.5 -28.15 45.75 -26.25 43.75 -25.1 41.75 -23.95 39.25 -23.95 34.1 -23.95 32.75 -27.65 31.9 -30.05 31.9 -35.1 L32.15 -48.4 M30.3 -51.4 Q32.9 -51.4 32.9 -48.4 L32.65 -35.1 Q32.65 -30.2 33.45 -27.95 34.65 -24.7 39.25 -24.7 41.6 -24.7 43.4 -25.75 45.15 -26.8 45.8 -28.45 46.7 -30.6 46.7 -36.9 L46.7 -44.0 Q46.5 -46.1 45.9 -46.1 L45.05 -46.05 44.95 -46.0 44.15 -46.0 Q42.8 -46.0 42.05 -46.7 41.3 -47.35 41.3 -48.6 41.3 -51.4 44.35 -51.4 L47.6 -51.2 50.45 -51.35 Q53.0 -51.35 53.0 -48.7 L52.85 -47.25 Q52.6 -44.85 52.6 -40.75 L52.65 -27.7 Q52.85 -25.25 53.55 -25.25 L55.9 -25.5 Q58.7 -25.5 58.7 -22.8 58.7 -21.85 58.15 -21.1 57.35 -20.05 55.45 -20.05 L52.05 -20.35 50.95 -20.25 49.6 -20.05 Q47.3 -20.05 47.15 -22.35 43.95 -19.3 38.6 -19.3 31.2 -19.3 28.25 -23.95 27.0 -26.0 26.85 -28.75 L26.8 -38.95 Q26.8 -45.75 25.8 -46.3 L24.85 -46.15 23.5 -46.0 Q20.7 -46.0 20.7 -48.7 20.7 -51.35 24.0 -51.35 L27.5 -51.1 30.3 -51.4" fill="#fff" fill-rule="evenodd" stroke="none"/>
      <path d="M62.2 -61.2 L65.2 -60.9 67.0 -61.1 68.75 -61.35 Q70.15 -61.35 70.15 -59.6 L70.05 -58.7 Q69.65 -53.9 69.65 -45.8 L69.7 -27.4 Q69.8 -24.35 71.3 -24.35 L72.8 -24.65 73.75 -24.75 Q75.7 -24.75 75.7 -22.75 75.7 -20.8 73.25 -20.8 L67.05 -21.3 64.2 -21.05 61.4 -20.8 61.15 -20.8 Q58.65 -20.8 58.65 -22.95 58.65 -24.75 60.65 -24.75 L61.05 -24.75 63.3 -24.5 Q64.35 -24.5 64.65 -25.4 64.9 -26.2 65.0 -30.15 L65.0 -56.4 Q64.55 -57.75 63.3 -57.75 L60.7 -57.4 Q58.7 -57.4 58.7 -59.3 58.7 -61.25 61.05 -61.25 L62.2 -61.2" fill="#fff" fill-rule="evenodd" stroke="none"/>
      <path d="M61.05 -62.0 L65.2 -61.65 66.85 -61.85 68.75 -62.1 Q70.9 -62.1 70.9 -59.6 L70.8 -58.6 Q70.4 -53.8 70.4 -45.8 L70.45 -27.4 Q70.6 -25.1 71.3 -25.1 L72.6 -25.4 72.7 -25.4 73.75 -25.5 Q75.05 -25.5 75.75 -24.8 76.45 -24.05 76.45 -22.75 76.45 -20.05 73.25 -20.05 L67.05 -20.55 64.3 -20.3 61.4 -20.05 61.15 -20.05 Q57.9 -20.05 57.9 -22.95 57.9 -25.5 60.65 -25.5 L61.2 -25.5 61.6 -25.45 61.7 -25.45 63.3 -25.25 Q63.8 -25.25 63.95 -25.6 64.2 -27.1 64.25 -30.15 L64.25 -56.25 Q64.05 -57.0 63.35 -57.0 L61.9 -56.8 60.7 -56.65 Q59.4 -56.65 58.65 -57.35 57.95 -58.05 57.95 -59.3 57.95 -62.0 61.05 -62.0 M68.75 -61.35 L67.0 -61.1 65.2 -60.9 62.2 -61.2 61.05 -61.25 Q58.7 -61.25 58.7 -59.3 58.7 -57.4 60.7 -57.4 L63.3 -57.75 Q64.55 -57.75 65.0 -56.4 L65.0 -30.15 Q64.9 -26.2 64.65 -25.4 64.35 -24.5 63.3 -24.5 L61.05 -24.75 60.65 -24.75 Q58.65 -24.75 58.65 -22.95 58.65 -20.8 61.15 -20.8 L61.4 -20.8 64.2 -21.05 67.05 -21.3 73.25 -20.8 Q75.7 -20.8 75.7 -22.75 75.7 -24.75 73.75 -24.75 L72.8 -24.65 71.3 -24.35 Q69.8 -24.35 69.7 -27.4 L69.65 -45.8 Q69.65 -53.9 70.05 -58.7 L70.15 -59.6 Q70.15 -61.35 68.75 -61.35" fill="#fff" fill-rule="evenodd" stroke="none"/>
    </g>
    <g id="text0" transform="matrix(1.0, 0.0, 0.0, 1.0, -0.15, -1.05)">
      <g transform="matrix(1.0, 0.0, 0.0, 1.0, 0.0, 0.0)">
        <use fill="#fff" height="6.9" transform="matrix(0.0071, 0.0, 0.0, 0.0071, 0.0, 7.0)" width="12.5" xlink:href="#font_American_Typewriter_Bold_T0"/>
        <use fill="#fff" height="6.9" transform="matrix(0.0071, 0.0, 0.0, 0.0071, 5.0, 7.0)" width="12.5" xlink:href="#font_American_Typewriter_Bold_M0"/>
      </g>
    </g>
    <g id="font_American_Typewriter_Bold_T0">
      <path d="M230.5 -130.0 Q265.0 -130.0 265.0 -193.5 L265.0 -488.5 Q265.0 -557.0 215.0 -557.0 165.0 -557.0 165.0 -522.0 165.0 -512.0 168.5 -491.0 172.0 -470.0 172.0 -460.0 172.0 -368.5 95.0 -368.5 59.5 -368.5 39.0 -391.5 18.5 -414.5 18.5 -453.5 18.5 -467.0 22.5 -502.0 25.5 -528.5 25.5 -551.0 25.5 -563.0 22.5 -601.0 20.5 -626.5 20.5 -642.0 20.5 -687.0 65.5 -687.0 89.0 -687.0 125.0 -684.0 207.0 -677.0 354.5 -677.0 503.0 -677.0 584.5 -684.0 620.5 -687.0 643.0 -687.0 689.0 -687.0 689.0 -642.0 689.0 -626.5 686.5 -596.5 684.0 -566.5 684.0 -551.0 684.0 -534.5 687.0 -502.0 691.0 -459.0 691.0 -452.5 691.0 -413.5 670.0 -391.0 649.0 -368.5 614.5 -368.5 537.5 -368.5 537.5 -456.5 537.5 -469.0 540.5 -489.5 543.5 -510.0 543.5 -520.0 543.5 -557.0 498.5 -557.0 469.0 -557.0 456.5 -541.5 444.5 -526.5 444.5 -488.5 L444.5 -193.5 Q444.5 -130.0 479.0 -130.0 490.5 -130.0 512.5 -133.5 534.5 -137.0 546.0 -137.0 607.0 -137.0 607.0 -76.0 607.0 5.0 530.5 5.0 500.5 5.0 460.0 1.0 398.5 -5.0 354.5 -5.0 309.0 -5.0 249.0 1.0 209.0 5.0 178.0 5.0 101.5 5.0 101.5 -69.5 101.5 -137.0 164.0 -137.0 175.0 -137.0 197.0 -133.5 219.0 -130.0 230.5 -130.0" fill-rule="evenodd" stroke="none"/>
    </g>
    <g id="font_American_Typewriter_Bold_M0">
      <path d="M467.0 -623.5 L552.0 -250.0 641.0 -608.5 Q652.5 -653.5 666.0 -670.0 680.0 -687.0 705.5 -687.0 728.0 -687.0 774.0 -682.0 820.0 -677.0 844.0 -677.0 868.5 -677.0 965.5 -685.0 L1006.5 -687.0 Q1040.5 -687.0 1061.0 -667.0 1081.5 -647.0 1081.5 -612.5 1081.5 -583.5 1065.5 -564.0 1049.5 -545.0 1026.0 -545.0 1017.0 -545.0 1000.5 -548.5 984.0 -552.0 977.0 -552.0 949.0 -552.0 949.0 -483.5 L949.0 -199.5 Q949.0 -130.0 976.0 -130.0 984.0 -130.0 1000.5 -133.5 1017.0 -137.0 1025.0 -137.0 1048.5 -137.0 1065.0 -118.0 1081.5 -98.5 1081.5 -69.5 1081.5 -35.0 1061.0 -15.0 1040.5 5.0 1006.5 5.0 987.0 5.0 941.0 -1.0 910.5 -5.0 879.5 -5.0 860.0 -5.0 822.5 0.0 784.5 5.0 765.0 5.0 734.0 5.0 715.5 -15.5 696.5 -36.0 696.5 -69.5 696.5 -133.0 738.5 -133.0 744.5 -133.0 747.5 -132.0 L754.5 -132.0 760.0 -131.0 Q776.0 -131.0 779.5 -153.5 780.5 -164.0 780.5 -188.5 L780.5 -574.5 Q709.0 -322.5 638.0 -70.5 619.5 -5.0 577.5 -5.0 L512.0 -5.0 Q471.0 -5.0 455.5 -63.5 L319.5 -574.5 319.5 -188.5 Q319.5 -140.5 328.5 -134.0 332.0 -131.0 340.0 -131.0 342.0 -131.0 346.0 -132.0 L352.5 -132.0 Q355.5 -133.0 361.5 -133.0 402.5 -133.0 402.5 -70.5 402.5 -36.0 384.0 -15.5 365.5 5.0 335.0 5.0 320.5 5.0 298.0 2.0 L262.0 -3.0 213.0 -5.0 Q178.0 -5.0 154.5 -2.0 L91.0 6.0 Q59.5 6.0 39.0 -15.5 18.5 -37.0 18.5 -69.5 18.5 -99.5 34.5 -118.5 50.0 -137.0 75.0 -137.0 83.0 -137.0 99.0 -133.5 114.5 -130.0 123.0 -130.0 143.5 -130.0 148.5 -156.5 150.5 -167.0 150.5 -199.5 L150.5 -483.5 Q150.5 -516.0 148.5 -525.5 143.5 -552.0 123.0 -552.0 114.5 -552.0 99.0 -548.5 83.0 -545.0 73.5 -545.0 50.0 -545.0 34.5 -564.0 18.5 -583.5 18.5 -612.5 18.5 -687.0 94.0 -687.0 119.0 -687.0 176.0 -682.0 233.5 -677.0 262.0 -677.0 308.0 -677.0 358.5 -683.0 392.0 -687.0 411.5 -687.0 437.0 -687.0 447.5 -675.0 457.5 -662.5 467.0 -623.5" fill-rule="evenodd" stroke="none"/>
    </g>
    <g id="shape1" transform="matrix(1.0, 0.0, 0.0, 1.0, -77.95, 74.4)">
      <path d="M77.95 -15.7 Q77.9 -32.85 101.45 -40.35 L108.35 -42.55 Q114.0 -44.45 116.85 -47.45 119.65 -50.45 119.65 -54.65 119.65 -60.35 115.65 -63.7 113.6 -65.4 110.9 -66.15 L110.85 -66.15 Q108.05 -67.05 104.45 -67.05 98.2 -67.05 94.1 -64.55 L94.15 -64.55 Q90.35 -62.2 89.45 -58.3 94.55 -57.7 94.5 -53.35 94.5 -50.65 92.55 -48.75 90.55 -46.8 87.7 -46.8 84.15 -46.8 82.1 -49.2 79.95 -51.6 79.95 -55.45 79.95 -59.55 81.8 -62.95 L81.85 -62.95 Q83.65 -66.3 87.3 -69.0 90.9 -71.7 95.35 -73.05 99.85 -74.4 105.2 -74.4 110.35 -74.4 114.55 -73.05 118.85 -71.65 122.15 -68.9 125.45 -66.2 127.15 -62.65 128.8 -59.15 128.8 -54.8 128.8 -51.8 128.0 -49.2 127.2 -46.65 125.6 -44.3 122.35 -39.8 116.65 -37.5 L105.15 -33.45 105.1 -33.45 Q98.15 -31.1 94.0 -28.9 90.95 -27.3 88.9 -24.9 87.3 -23.05 86.7 -20.7 90.8 -24.3 96.3 -24.3 99.3 -24.3 102.35 -22.95 105.4 -21.75 108.5 -19.2 L108.55 -19.15 Q115.25 -13.9 118.85 -13.85 121.35 -13.85 122.9 -15.45 124.35 -17.1 124.4 -19.55 L124.2 -20.75 Q122.75 -19.7 121.1 -19.7 116.45 -19.7 116.45 -24.25 116.45 -26.7 118.3 -28.25 120.0 -29.85 122.9 -29.85 126.7 -29.85 129.0 -27.15 131.25 -24.45 131.25 -20.05 131.25 -13.9 127.4 -9.5 123.5 -5.15 117.95 -5.15 112.65 -5.1 105.4 -10.7 98.35 -16.0 93.2 -16.05 90.6 -16.05 89.0 -15.15 87.85 -14.5 87.2 -13.2 L87.6 -13.2 Q90.85 -13.2 90.85 -9.95 90.85 -5.15 85.6 -5.15 82.15 -5.15 80.05 -8.05 77.95 -10.9 77.95 -15.7" fill="#ff00cc" fill-rule="evenodd" stroke="none"/>
    </g>
  </defs>
</svg>
