<?xml version="1.0" encoding="UTF-8" standalone="no"?>
<svg xmlns:xlink="http://www.w3.org/1999/xlink" height="462.75px" width="616.3px" xmlns="http://www.w3.org/2000/svg">
  <g transform="matrix(1.0, 0.0, 0.0, 1.0, 305.3, 191.75)">
    <use height="462.75" transform="matrix(1.0, 0.0, 0.0, 1.0, -305.3, -191.75)" width="616.3" xlink:href="#shape0"/>
    <use height="587.5" transform="matrix(0.7589, 0.0, 0.0, 0.7589, -296.1351, -183.2891)" width="788.0" xlink:href="#sprite0"/>
  </g>
  <defs>
    <g id="shape0" transform="matrix(1.0, 0.0, 0.0, 1.0, 305.3, 191.75)">
      <path d="M151.0 -138.75 L179.0 -141.9 182.5 -136.5 298.0 -148.4 311.0 -130.75 295.6 61.85 284.85 64.25 239.6 59.25 269.25 79.1 272.25 93.75 258.85 97.25 191.6 84.1 180.1 75.0 173.25 55.75 135.25 54.6 141.75 69.25 126.85 75.35 91.85 67.25 103.85 81.85 92.75 101.0 76.6 103.75 77.75 110.9 Q78.65 119.2 77.25 125.25 75.85 131.25 73.55 135.15 72.4 137.1 71.5 137.85 L72.6 145.6 68.1 169.75 57.0 179.0 73.25 180.65 Q74.45 180.95 75.4 181.85 78.45 184.7 78.0 192.35 L72.6 256.85 62.75 264.1 43.5 264.85 32.35 271.0 -68.15 265.25 -75.75 259.85 -80.0 243.35 -88.9 236.85 -91.15 205.5 Q-89.5 198.45 -86.7 189.9 -81.1 172.75 -75.4 165.1 L-35.15 131.35 -60.9 131.75 -65.9 127.1 -70.45 126.95 Q-75.8 126.1 -79.65 122.5 -83.45 118.9 -85.55 115.95 L-86.9 113.75 -86.15 101.85 -90.15 106.35 Q-94.55 110.7 -96.5 110.25 -98.45 109.8 -107.3 101.5 L-115.75 93.35 -117.25 73.5 -106.9 63.5 -116.5 53.1 -114.15 47.0 -160.25 53.5 -162.85 61.25 Q-165.75 69.65 -167.15 73.0 -168.55 76.35 -176.25 80.4 -180.1 82.4 -183.65 83.75 -234.75 98.0 -237.4 98.35 -239.05 98.6 -246.65 95.45 L-253.9 92.25 -250.05 79.25 -225.9 62.75 -265.8 66.5 -279.15 56.5 -305.3 -123.0 -294.55 -139.15 -146.4 -135.65 -144.4 -141.9 -139.0 -143.75 -139.0 -151.75 -94.15 -159.5 -86.5 -157.15 -81.15 -148.0 -43.5 -148.4 -52.0 -156.4 -53.15 -172.15 -40.4 -186.4 -31.65 -184.4 -21.65 -169.5 -13.25 -171.0 17.1 -167.15 23.6 -173.65 40.5 -163.25 62.0 -191.75 73.85 -188.65 87.35 -167.5 57.35 -141.5 62.75 -138.4 144.5 -149.5 151.0 -138.75 M-17.4 125.6 L-2.15 121.35 Q-3.15 116.3 -7.65 114.5 -9.95 113.65 -12.0 113.75 L-17.4 125.6 M15.1 196.6 L16.35 179.75 -10.15 193.1 15.1 196.6" fill="#000000" fill-rule="evenodd" stroke="none"/>
    </g>
    <g id="sprite0" transform="matrix(1.0, 0.0, 0.0, 1.0, 393.95, 293.75)">
      <use height="587.5" transform="matrix(1.0, 0.0, 0.0, 1.0, -393.95, -293.75)" width="788.0" xlink:href="#shape1"/>
    </g>
    <g id="shape1" transform="matrix(1.0, 0.0, 0.0, 1.0, 393.95, 293.75)">
      <path d="M-127.7 -167.75 L-136.45 -155.0 -180.45 -105.75 -194.45 -89.5 -124.7 -94.0 -72.45 -91.0 -54.2 -88.75 -209.95 -57.0 -250.95 -88.5 -254.2 -163.75 -322.95 -209.75 -224.95 -206.5 -141.7 -171.0 -127.7 -167.75" fill="#1a1a1b" fill-rule="evenodd" stroke="none"/>
      <path d="M13.3 -155.25 L8.3 -140.0 -17.7 -128.75 -18.2 -136.75 -8.95 -149.25 11.05 -164.5 13.3 -155.25" fill="#1a1a1b" fill-rule="evenodd" stroke="none"/>
      <path d="M-194.45 -89.5 L-191.7 -95.75 -104.2 -108.0 -69.45 -108.6 -73.35 -91.7 -84.45 -90.75 -122.45 -93.5 -194.45 -89.5" fill="#323133" fill-rule="evenodd" stroke="none"/>
      <path d="M-69.45 -108.6 L-46.95 -109.0 -49.95 -102.5 -73.2 -91.75 -73.35 -91.7 -69.45 -108.6" fill="#4d4c4d" fill-rule="evenodd" stroke="none"/>
      <path d="M14.05 -243.25 L20.3 -253.25 12.3 -198.25 -8.95 -167.25 -18.2 -159.25 14.05 -243.25" fill="#4c4c4d" fill-rule="evenodd" stroke="none"/>
      <path d="M-108.45 -235.75 L-91.15 -219.55 -46.7 -142.0 -53.8 -132.9 -114.15 -223.9 -108.45 -235.75" fill="#434245" fill-rule="evenodd" stroke="none"/>
      <path d="M33.05 228.0 L33.55 221.0 39.55 203.1 45.85 213.45 41.3 227.0 33.05 228.0" fill="#7d5a0f" fill-rule="evenodd" stroke="none"/>
      <path d="M-279.95 7.25 L-261.45 4.25 -255.95 30.25 -317.45 67.25 -328.45 64.25 -280.45 27.25 -279.95 7.25" fill="#666668" fill-rule="evenodd" stroke="none"/>
      <path d="M-386.7 -224.75 L-375.95 -216.25 -338.45 -30.75 -351.45 21.75 -359.95 24.75 -393.95 -213.75 -386.7 -224.75" fill="#636365" fill-rule="evenodd" stroke="none"/>
      <path d="M282.05 12.25 L293.05 14.25 293.55 29.75 347.05 64.75 338.05 64.75 322.3 58.5 276.8 29.0 282.05 12.25" fill="#666667" fill-rule="evenodd" stroke="none"/>
      <path d="M387.05 -236.75 L394.05 -224.5 377.8 18.75 369.55 16.25 365.3 10.5 372.55 -193.75 387.05 -236.75" fill="#666667" fill-rule="evenodd" stroke="none"/>
      <path d="M369.55 16.25 L377.8 18.75 293.05 14.25 282.05 12.25 313.55 9.25 369.55 16.25" fill="#2d2d2e" fill-rule="evenodd" stroke="none"/>
      <path d="M-42.45 143.45 L-33.15 127.75 -32.45 149.75 -43.8 195.45 -45.15 174.45 -42.45 143.45" fill="#70470a" fill-rule="evenodd" stroke="none"/>
      <path d="M-45.15 174.45 L-43.8 195.45 -95.45 255.75 -99.8 235.75 -76.95 201.65 -45.15 174.45" fill="#724d0c" fill-rule="evenodd" stroke="none"/>
      <path d="M-99.8 235.75 L-95.45 255.75 -109.8 255.1 -113.8 235.45 -107.15 231.6 -99.8 235.75" fill="#7c580e" fill-rule="evenodd" stroke="none"/>
      <path d="M-36.15 29.75 L-52.45 51.75 -55.8 44.75 -50.15 27.45 -37.45 20.1 -36.15 29.75" fill="#593c08" fill-rule="evenodd" stroke="none"/>
      <path d="M-2.8 10.1 L9.85 18.45 19.85 49.1 18.2 56.75 -2.8 20.45 -2.8 10.1" fill="#5a3d07" fill-rule="evenodd" stroke="none"/>
      <path d="M-106.8 93.45 L-102.8 89.45 -88.8 105.75 -96.15 105.45 -106.8 93.45" fill="#593f07" fill-rule="evenodd" stroke="none"/>
      <path d="M-71.8 58.75 L-64.15 73.45 -88.8 105.75 -99.15 93.75 -95.8 77.45 -71.8 58.75" fill="#704d0b" fill-rule="evenodd" stroke="none"/>
      <path d="M-69.8 38.75 L-61.45 52.45 -64.15 73.45 -71.8 58.75 -74.45 47.1 -69.8 38.75" fill="#7c580e" fill-rule="evenodd" stroke="none"/>
      <path d="M43.85 276.1 L41.55 293.75 -93.8 285.75 -98.45 266.75 -38.15 266.75 43.85 276.1" fill="#79570e" fill-rule="evenodd" stroke="none"/>
      <path d="M77.55 286.1 L53.2 284.75 59.2 264.75 73.55 261.45 84.85 265.75 77.55 286.1" fill="#7d5a0f" fill-rule="evenodd" stroke="none"/>
      <path d="M51.2 193.45 L63.2 224.1 59.2 264.75 53.2 284.75 47.2 216.75 51.2 193.45" fill="#694309" fill-rule="evenodd" stroke="none"/>
      <path d="M48.85 263.75 L47.2 271.1 -6.15 227.1 -7.15 216.45 23.55 232.1 48.85 263.75" fill="#5e3d07" fill-rule="evenodd" stroke="none"/>
      <path d="M-82.15 90.45 L-67.45 86.75 -35.8 89.45 -36.45 109.1 -80.8 109.45 -82.15 90.45" fill="#75520d" fill-rule="evenodd" stroke="none"/>
      <path d="M-7.8 37.75 L-9.8 63.1 -13.8 84.1 -12.15 64.45 -12.8 46.1 -7.8 37.75" fill="#593c08" fill-rule="evenodd" stroke="none"/>
      <path d="M17.85 95.1 L3.2 127.1 4.2 109.75 Q4.85 98.95 -4.25 93.6 -7.1 91.95 -10.55 91.05 L-13.45 90.45 -9.15 75.75 6.55 73.45 17.85 95.1" fill="#714d0b" fill-rule="evenodd" stroke="none"/>
      <path d="M-30.8 181.75 L-26.8 180.45 -23.45 186.45 -28.15 197.75 -34.8 193.75 -30.8 181.75" fill="#724c0b" fill-rule="evenodd" stroke="none"/>
      <path d="M31.55 164.1 Q20.85 171.1 6.7 176.7 -8.2 182.55 -10.15 183.75 -14.95 186.7 -22.0 192.5 L-28.15 197.75 -23.45 186.45 -22.45 181.45 -2.45 161.75 38.85 150.45 31.55 164.1" fill="#5f4108" fill-rule="evenodd" stroke="none"/>
      <path d="M24.85 66.1 L38.55 90.1 55.55 153.1 51.2 181.45 22.85 93.75 24.85 66.1" fill="#6e470a" fill-rule="evenodd" stroke="none"/>
      <path d="M51.2 181.45 L57.2 143.1 80.2 134.45 74.85 163.75 Q67.55 171.9 58.65 177.5 L51.2 181.45" fill="#76540d" fill-rule="evenodd" stroke="none"/>
      <path d="M60.55 87.75 L72.85 98.1 79.85 123.45 68.85 133.75 51.55 97.45 60.55 87.75" fill="#7b510d" fill-rule="evenodd" stroke="none"/>
      <path d="M-13.8 84.1 Q-16.1 83.55 -19.4 84.15 -26.0 85.25 -31.0 90.75 -34.0 94.1 -35.5 101.95 -36.25 105.6 -36.4 108.7 L-35.8 89.45 -39.8 69.1 -20.15 59.45 -12.15 64.45 -13.8 84.1" fill="#6d470a" fill-rule="evenodd" stroke="none"/>
      <path d="M24.55 53.1 L26.2 35.1 50.2 74.75 47.2 93.75 24.55 53.1" fill="#6f480a" fill-rule="evenodd" stroke="none"/>
      <path d="M70.2 61.1 L66.55 80.1 47.2 93.75 50.2 74.75 58.85 63.75 70.2 61.1" fill="#76540d" fill-rule="evenodd" stroke="none"/>
      <path d="M33.05 228.0 L28.35 204.2 30.55 189.1 37.55 203.1 33.05 228.0" fill="#5e3d07" fill-rule="evenodd" stroke="none"/>
      <path d="M-280.45 14.75 L-359.95 24.75 -351.45 21.75 -304.45 11.45 -268.8 11.75 -280.45 14.75" fill="#232324" fill-rule="evenodd" stroke="none"/>
      <path d="M-223.45 6.75 L-223.45 5.45 -207.45 -0.9 -126.15 -7.55 -135.15 -5.25 -223.45 6.75" fill="#232324" fill-rule="evenodd" stroke="none"/>
      <path d="M232.2 6.75 L236.55 10.75 166.85 7.45 155.85 4.75 158.2 4.1 232.2 6.75" fill="#232324" fill-rule="evenodd" stroke="none"/>
      <path d="M-147.45 48.75 L-139.45 52.45 -131.7 68.5 -132.8 82.45 -147.15 64.45 -147.45 48.75" fill="#454546" fill-rule="evenodd" stroke="none"/>
      <path d="M-131.7 68.5 L-121.45 43.1 -103.95 29.75 -107.15 46.1 -132.8 82.45 -131.7 68.5" fill="#3b3422" fill-rule="evenodd" stroke="none"/>
      <path d="M-143.7 19.0 L-146.8 15.75 -110.8 -12.25 -105.2 -10.25 -126.8 10.45 -143.7 19.0" fill="#969499" fill-rule="evenodd" stroke="none"/>
      <path d="M157.5 27.45 L154.05 14.0 159.85 16.1 169.85 34.75 164.3 32.75 157.5 27.45" fill="#48484a" fill-rule="evenodd" stroke="none"/>
      <path d="M154.85 33.1 L145.05 29.75 151.5 28.45 169.85 34.75 154.85 33.1" fill="#232324" fill-rule="evenodd" stroke="none"/>
      <path d="M65.55 25.0 L102.2 52.45 114.3 69.75 104.5 73.1 62.85 30.1 65.55 25.0" fill="#312b1f" fill-rule="evenodd" stroke="none"/>
      <path d="M-27.45 -63.5 L-43.5 0.45 -77.2 25.5 -86.15 22.45 -36.8 -61.9 -27.45 -63.5" fill="#4d4c4d" fill-rule="evenodd" stroke="none"/>
      <path d="M84.05 -293.75 L82.5 -285.9 62.55 -261.5 53.5 -253.55 71.85 -281.9 84.05 -293.75" fill="#5b5b5d" fill-rule="evenodd" stroke="none"/>
      <path d="M62.55 -261.5 L62.85 -254.55 56.8 -239.75 47.5 -231.55 53.5 -253.55 62.55 -261.5" fill="#4c4c4d" fill-rule="evenodd" stroke="none"/>
      <path d="M42.85 -241.9 L30.2 -213.25 28.8 -223.5 35.2 -246.9 43.8 -256.5 42.85 -241.9" fill="#303132" fill-rule="evenodd" stroke="none"/>
      <path d="M0.5 -255.9 L11.55 -263.25 10.85 -248.55 -2.15 -226.25 0.5 -255.9" fill="#303132" fill-rule="evenodd" stroke="none"/>
      <path d="M-1.2 -238.75 L-2.15 -226.25 -23.5 -252.9 -24.95 -266.25 -9.5 -257.25 -1.2 -238.75" fill="#555257" fill-rule="evenodd" stroke="none"/>
      <path d="M-62.2 -275.25 L-48.8 -269.25 -22.7 -244.25 -23.8 -234.55 -59.8 -261.9 -62.2 -275.25" fill="#4c4c4d" fill-rule="evenodd" stroke="none"/>
      <path d="M-52.45 -91.25 L-59.7 -95.25 -36.15 -103.25 -20.45 -115.0 -14.2 -102.5 -25.45 -93.55 -52.45 -91.25" fill="#323133" fill-rule="evenodd" stroke="none"/>
      <path d="M-112.45 -231.5 L-112.45 -220.55 -169.8 -230.9 -177.45 -244.0 -147.45 -243.25 -112.45 -231.5" fill="#4c4c4d" fill-rule="evenodd" stroke="none"/>
      <path d="M-38.45 -135.0 L-45.15 -127.25 -53.8 -132.9 -46.7 -142.0 -41.45 -141.2 -38.45 -135.0" fill="#302b36" fill-rule="evenodd" stroke="none"/>
      <path d="M-186.8 -222.9 L-183.45 -232.25 -164.45 -225.9 -46.7 -120.75 -53.45 -113.25 -186.8 -222.9" fill="#1a1a1b" fill-rule="evenodd" stroke="none"/>
      <path d="M-42.15 -122.55 L-32.95 -121.25 -40.15 -113.9 -53.45 -113.25 -46.7 -120.75 -42.15 -122.55" fill="#323133" fill-rule="evenodd" stroke="none"/>
      <path d="M106.5 -129.9 L104.55 -136.75 274.85 -168.25 275.85 -84.25 179.2 -18.9 161.2 -15.55 44.5 -94.25 36.05 -108.25 41.5 -104.55 33.55 -112.25 106.5 -129.9" fill="#1d1d1d" fill-rule="evenodd" stroke="none"/>
      <path d="M103.05 -140.5 L106.5 -131.55 38.2 -122.55 31.8 -131.0 55.2 -137.9 103.05 -140.5" fill="#3c3f3e" fill-rule="evenodd" stroke="none"/>
      <path d="M157.55 -205.0 L159.85 -195.25 106.5 -129.9 103.05 -140.5 105.5 -154.9 157.55 -205.0" fill="#1d1d1d" fill-rule="evenodd" stroke="none"/>
      <path d="M-211.8 -15.25 L-253.15 -47.25 -220.45 -87.9 -130.45 -93.9 -75.15 -91.25 -54.2 -88.75 -110.45 -66.55 -90.45 -68.25 -137.8 -37.9 -211.8 -15.25" fill="#1a1a1b" fill-rule="evenodd" stroke="none"/>
      <path d="M20.55 -89.75 L28.05 -83.25 29.3 -69.75 26.8 -64.0 18.8 -82.25 20.55 -89.75" fill="#1d1d1d" fill-rule="evenodd" stroke="none"/>
      <path d="M29.3 -69.75 L56.55 -67.25 139.3 -31.0 134.55 -26.5 26.8 -64.0 29.3 -69.75" fill="#2d2f2c" fill-rule="evenodd" stroke="none"/>
      <path d="M28.05 -56.25 L27.55 -61.75 65.8 -28.5 116.3 -30.75 114.55 -25.5 57.8 13.5 28.05 -56.25" fill="#1d1d1d" fill-rule="evenodd" stroke="none"/>
      <path d="M-1.95 -215.75 L-4.45 -200.0 -22.7 -127.25 -28.7 -131.5 -60.45 -222.25 -61.2 -234.5 -26.45 -176.0 -1.95 -215.75" fill="#1a1a1b" fill-rule="evenodd" stroke="none"/>
      <path d="M72.05 -220.0 L35.8 -150.25 28.8 -155.75 46.55 -197.0 67.3 -227.0 72.05 -220.0" fill="#535455" fill-rule="evenodd" stroke="none"/>
      <path d="M182.55 -237.5 L181.05 -227.0 57.8 -150.5 39.3 -147.5 36.3 -155.5 49.05 -164.25 182.55 -237.5" fill="#181818" fill-rule="evenodd" stroke="none"/>
      <path d="M225.8 -216.75 L165.3 -183.5 165.05 -192.25 193.3 -218.5 229.55 -228.75 225.8 -216.75" fill="#4c4c4d" fill-rule="evenodd" stroke="none"/>
      <path d="M69.8 24.5 L67.35 21.3 82.3 13.25 148.45 -1.25 148.3 4.5 141.3 26.25 69.8 24.5" fill="#312b1f" fill-rule="evenodd" stroke="none"/>
      <path d="M16.05 -60.0 L27.8 -21.5 33.05 23.75 16.05 -60.0" fill="#4d4c4d" fill-rule="evenodd" stroke="none"/>
      <path d="M16.05 -60.0 L29.05 -13.0 33.05 23.75 32.3 29.75 16.05 -55.0 16.05 -60.0" fill="#312b1f" fill-rule="evenodd" stroke="none"/>
      <path d="M33.05 23.75 L47.8 19.25 59.55 25.25 57.3 31.25 32.3 29.75 33.05 23.75" fill="#4d4c4d" fill-rule="evenodd" stroke="none"/>
      <path d="M-86.95 -5.5 L-93.45 2.25 -87.2 -57.75 -80.45 -68.0 -74.2 -44.25 -86.95 -5.5" fill="#969499" fill-rule="evenodd" stroke="none"/>
      <path d="M-93.45 2.25 L-86.95 -5.5 -80.95 -9.5 -77.7 -6.75 -84.2 0.75 -93.45 2.25" fill="#33302a" fill-rule="evenodd" stroke="none"/>
      <path d="M20.05 -13.75 L19.3 -8.0 -19.7 -1.0 -20.45 -6.25 -11.7 -12.75 20.05 -13.75" fill="#33302a" fill-rule="evenodd" stroke="none"/>
      <path d="M-0.45 -95.75 L27.8 -98.25 26.05 -90.25 -4.2 -75.25 -15.45 -110.75 -16.45 -121.5 -0.45 -95.75" fill="#1d1d1d" fill-rule="evenodd" stroke="none"/>
      <path d="M28.3 -103.0 L26.8 -98.5 25.05 -97.5 -10.95 -115.75 -11.7 -125.0 7.3 -123.0 28.3 -103.0" fill="#1a1a1b" fill-rule="evenodd" stroke="none"/>
      <path d="M-35.2 -129.5 L-29.7 -129.75 -20.7 -119.75 -21.7 -115.75 -33.7 -124.0 -35.2 -129.5" fill="#38343b" fill-rule="evenodd" stroke="none"/>
      <path d="M35.8 -148.0 L34.3 -139.25 24.05 -123.75 -15.7 -126.25 -15.45 -134.75 12.05 -138.0 35.8 -148.0" fill="#38343b" fill-rule="evenodd" stroke="none"/>
      <path d="M23.55 -179.5 L22.3 -176.25 12.8 -165.5 -15.7 -160.25 -9.2 -169.5 23.55 -179.5" fill="#1a1a1b" fill-rule="evenodd" stroke="none"/>
      <path d="M387.05 -236.75 L369.55 16.25 282.05 12.25 283.55 29.25 338.05 64.75 248.05 46.75 232.55 8.75 156.05 4.75 139.55 -35.75 167.55 -20.75 47.05 -100.75 40.55 -102.25 36.05 -108.25 257.85 -73.4 238.55 -78.25 33.55 -112.25 26.55 -122.75 228.05 -152.25 250.35 -158.55 104.55 -136.75 138.55 -177.25 221.55 -218.25 387.05 -236.75" fill="#ffffff" fill-rule="evenodd" stroke="none"/>
      <path d="M186.55 -221.75 L229.55 -228.75 165.05 -192.25 176.05 -213.75 186.55 -221.75" fill="#ffffff" fill-rule="evenodd" stroke="none"/>
      <path d="M154.05 14.0 L164.3 32.75 145.05 29.75 154.05 14.0" fill="#ffffff" fill-rule="evenodd" stroke="none"/>
      <path d="M114.3 69.75 L65.55 25.0 121.05 54.5 114.3 69.75" fill="#ffffff" fill-rule="evenodd" stroke="none"/>
      <path d="M67.35 21.3 L65.15 16.25 118.1 -28.3 140.4 -21.9 148.45 -1.25 140.5 22.35 67.35 21.3" fill="#ffffff" fill-rule="evenodd" stroke="none"/>
      <path d="M41.0 -31.2 L38.55 -41.3 32.65 -50.15 27.55 -61.75 52.1 -53.15 61.4 -47.9 71.8 -46.25 114.3 -30.75 109.9 -26.45 58.3 8.0 41.0 -31.2" fill="#ffffff" fill-rule="evenodd" stroke="none"/>
      <path d="M16.9 -59.35 L17.65 -63.35 59.55 25.25 33.05 23.75 16.9 -59.35" fill="#ffffff" fill-rule="evenodd" stroke="none"/>
      <path d="M-1.0 -78.7 L7.8 -80.6 17.45 -29.85 20.05 -13.75 -20.45 -6.25 -15.55 -33.7 -11.7 -43.9 -12.45 -50.8 -7.95 -75.75 -1.0 -78.7" fill="#ffffff" fill-rule="evenodd" stroke="none"/>
      <path d="M30.05 -70.35 L21.35 -89.25 35.75 -98.25 38.0 -98.55 41.55 -98.0 93.45 -63.0 108.4 -51.95 123.55 -42.75 138.05 -33.0 139.3 -31.0 122.7 -36.8 105.1 -44.0 84.0 -50.45 76.35 -53.15 65.85 -58.85 55.05 -60.65 36.15 -67.3 30.05 -70.35" fill="#ffffff" fill-rule="evenodd" stroke="none"/>
      <path d="M-147.45 48.75 L-135.45 35.5 -103.95 29.75 -131.7 68.5 -147.45 48.75" fill="#ffffff" fill-rule="evenodd" stroke="none"/>
      <path d="M-105.2 -10.25 L-106.2 11.0 -143.7 19.0 -105.2 -10.25" fill="#ffffff" fill-rule="evenodd" stroke="none"/>
      <path d="M-27.45 -63.5 L-20.95 -52.75 -23.45 11.75 -77.2 25.5 -27.45 -63.5" fill="#ffffff" fill-rule="evenodd" stroke="none"/>
      <path d="M-18.95 -93.75 L-15.7 -86.0 -77.7 -6.75 -86.95 -5.5 -80.45 -68.0 -18.95 -93.75" fill="#ffffff" fill-rule="evenodd" stroke="none"/>
      <path d="M-126.2 -251.0 L-112.45 -231.5 -177.45 -244.0 -126.2 -251.0" fill="#ffffff" fill-rule="evenodd" stroke="none"/>
      <path d="M-61.05 -163.7 L-70.05 -179.4 -80.8 -193.7 -108.45 -235.75 -68.95 -236.75 -36.1 -142.6 -38.6 -135.85 -45.25 -140.7 -46.7 -142.0 -61.05 -163.7" fill="#ffffff" fill-rule="evenodd" stroke="none"/>
      <path d="M-61.2 -234.5 L-34.2 -238.75 -1.95 -215.75 -12.6 -174.3 -22.7 -140.25 -29.35 -143.35 -47.7 -194.0 -61.2 -234.5" fill="#ffffff" fill-rule="evenodd" stroke="none"/>
      <path d="M-62.2 -275.25 L-54.2 -287.0 -22.7 -244.25 -62.2 -275.25" fill="#ffffff" fill-rule="evenodd" stroke="none"/>
      <path d="M11.55 -263.25 L-1.2 -238.75 -24.95 -266.25 11.55 -263.25" fill="#ffffff" fill-rule="evenodd" stroke="none"/>
      <path d="M-4.1 -165.8 L-9.7 -165.85 -7.15 -178.85 20.3 -253.25 23.55 -179.5 15.5 -170.4 12.9 -168.85 -4.1 -165.8" fill="#ffffff" fill-rule="evenodd" stroke="none"/>
      <path d="M28.8 -223.5 L26.55 -245.25 29.8 -268.0 43.8 -256.5 28.8 -223.5" fill="#ffffff" fill-rule="evenodd" stroke="none"/>
      <path d="M100.3 -278.0 L56.8 -239.75 62.55 -261.5 84.05 -293.75 100.3 -278.0" fill="#ffffff" fill-rule="evenodd" stroke="none"/>
      <path d="M-35.2 -129.5 L-32.2 -136.75 -23.95 -132.75 -20.7 -119.75 -35.2 -129.5" fill="#ffffff" fill-rule="evenodd" stroke="none"/>
      <path d="M-29.45 -99.25 L-59.7 -95.25 -39.2 -112.5 -20.45 -115.0 -16.95 -108.5 -29.45 -99.25" fill="#ffffff" fill-rule="evenodd" stroke="none"/>
      <path d="M5.05 -110.15 L25.75 -98.15 -3.95 -83.0 -16.45 -121.5 5.05 -110.15" fill="#ffffff" fill-rule="evenodd" stroke="none"/>
      <path d="M11.8 -125.0 L15.05 -124.0 26.4 -104.9 10.65 -112.65 -11.7 -125.0 11.8 -125.0" fill="#ffffff" fill-rule="evenodd" stroke="none"/>
      <path d="M9.6 -145.85 L15.8 -148.05 34.15 -147.2 24.5 -134.2 9.55 -133.65 -15.45 -134.75 9.6 -145.85" fill="#ffffff" fill-rule="evenodd" stroke="none"/>
      <path d="M-0.9 -159.25 L9.55 -162.5 6.05 -149.75 4.05 -147.95 -7.75 -142.0 -16.35 -139.1 -15.1 -151.5 -7.8 -156.25 -0.9 -159.25" fill="#ffffff" fill-rule="evenodd" stroke="none"/>
      <path d="M44.05 -221.75 L67.3 -227.0 36.05 -169.2 28.8 -157.3 23.8 -166.25 44.05 -221.75" fill="#ffffff" fill-rule="evenodd" stroke="none"/>
      <path d="M77.55 -222.0 L182.55 -237.5 66.65 -165.5 55.85 -160.1 40.05 -156.65 44.5 -168.75 77.55 -222.0" fill="#ffffff" fill-rule="evenodd" stroke="none"/>
      <path d="M103.05 -140.5 L33.7 -131.3 40.9 -144.55 52.85 -152.4 157.55 -205.0 121.7 -162.6 112.1 -154.3 103.05 -140.5" fill="#ffffff" fill-rule="evenodd" stroke="none"/>
      <path d="M-183.45 -232.25 L-167.7 -233.0 -103.7 -213.25 -42.95 -129.25 -32.95 -121.25 -46.7 -120.75 -183.45 -232.25" fill="#ffffff" fill-rule="evenodd" stroke="none"/>
      <path d="M-131.4 -167.65 L-146.9 -149.45 -154.2 -142.5 -290.95 -198.75 -315.2 -207.25 -155.95 -139.25 -199.7 -89.75 -225.7 -85.5 -118.2 -91.5 -54.2 -88.75 -209.2 -16.5 -170.95 -29.75 -90.45 -68.25 -93.2 -32.5 -126.45 -7.75 -223.45 5.0 -235.2 42.75 -317.95 67.25 -269.2 28.25 -268.2 11.75 -351.45 21.75 -386.7 -224.75 -186.7 -220.0 -139.5 -178.15 -131.4 -167.65" fill="#ffffff" fill-rule="evenodd" stroke="none"/>
      <path d="M-72.7 -96.25 L-121.45 -99.75 -191.7 -95.75 -119.45 -168.25 -46.95 -109.0 -72.7 -96.25" fill="#ffffff" fill-rule="evenodd" stroke="none"/>
      <path d="M-71.8 58.75 L-99.15 93.75 -106.8 93.45 Q-106.9 83.55 -102.3 71.75 -93.15 48.15 -69.8 38.75 L-71.8 58.75" fill="#e8b32b" fill-rule="evenodd" stroke="none"/>
      <path d="M-44.35 21.8 L-37.45 20.1 -55.8 44.75 -54.45 25.45 Q-51.75 23.8 -44.35 21.8" fill="#e8b32b" fill-rule="evenodd" stroke="none"/>
      <path d="M-2.8 10.1 Q1.55 9.75 12.85 11.45 L19.85 49.1 -2.8 10.1" fill="#e8b32b" fill-rule="evenodd" stroke="none"/>
      <path d="M60.45 50.2 Q67.35 56.0 70.2 61.1 L50.2 74.75 26.2 35.1 Q46.6 38.65 60.45 50.2" fill="#e8b32b" fill-rule="evenodd" stroke="none"/>
      <path d="M86.15 110.25 Q84.05 118.8 79.85 123.45 L60.55 87.75 80.2 73.75 Q90.4 93.15 86.15 110.25" fill="#e8b32b" fill-rule="evenodd" stroke="none"/>
      <path d="M-35.8 83.65 Q-36.3 87.1 -35.8 89.45 L-82.15 90.45 -34.45 34.1 -7.8 37.75 -12.15 64.45 Q-14.55 63.85 -17.95 64.4 -24.8 65.5 -29.8 71.1 -34.8 76.75 -35.8 83.65" fill="#e8b32b" fill-rule="evenodd" stroke="none"/>
      <path d="M24.85 79.45 L38.85 150.45 25.1 158.35 Q9.2 167.1 -1.45 171.45 -12.05 175.85 -18.8 181.6 L-23.45 186.45 -30.8 181.75 -20.15 128.75 -15.4 125.8 Q-9.7 122.1 -4.95 118.05 10.2 105.15 10.2 94.1 10.2 82.9 1.05 78.05 -2.05 76.45 -5.55 75.85 L-9.15 75.75 -1.45 42.45 3.2 42.45 24.85 79.45" fill="#e8b32b" fill-rule="evenodd" stroke="none"/>
      <path d="M24.85 66.1 L30.55 66.45 80.2 134.45 Q72.9 142.6 63.5 148.65 L55.55 153.1 24.85 66.1" fill="#e8b32b" fill-rule="evenodd" stroke="none"/>
      <path d="M-91.8 171.45 Q-77.2 151.65 -53.7 137.7 -41.95 130.75 -33.15 127.75 L-45.15 174.45 -99.8 235.75 -113.8 235.45 Q-113.95 227.15 -111.3 215.0 -106.0 190.7 -91.8 171.45" fill="#e8b32b" fill-rule="evenodd" stroke="none"/>
      <path d="M43.85 276.1 L-98.45 266.75 -55.45 218.45 -19.8 220.75 44.2 267.1 43.85 276.1" fill="#e8b32b" fill-rule="evenodd" stroke="none"/>
      <path d="M45.85 220.45 L48.85 263.75 -7.15 216.45 45.85 220.45" fill="#e8b32b" fill-rule="evenodd" stroke="none"/>
      <path d="M87.55 194.45 L84.85 265.75 59.2 264.75 51.2 193.45 87.55 194.45" fill="#e8b32b" fill-rule="evenodd" stroke="none"/>
      <path d="M30.55 189.1 L44.55 187.75 45.85 213.45 35.5 214.8 30.55 189.1" fill="#e8b32b" fill-rule="evenodd" stroke="none"/>
      <path d="M-248.15 -63.15 L-232.3 -54.3 -240.55 -37.65 -257.35 -46.9 Q-263.2 -40.3 -271.25 -37.2 -277.6 -34.35 -286.65 -34.5 L-292.1 -34.95 -292.55 -35.0 -296.6 -35.85 Q-300.15 -36.8 -303.0 -38.25 -317.1 -44.8 -326.6 -61.55 -336.15 -78.35 -339.3 -102.2 -341.45 -118.35 -339.8 -131.85 -338.2 -145.4 -332.95 -155.25 -327.75 -165.0 -319.5 -170.2 -311.25 -175.45 -300.65 -175.75 L-295.5 -175.6 Q-276.15 -173.85 -262.7 -155.8 -249.25 -137.8 -245.25 -108.3 -241.65 -81.9 -248.15 -63.15 M-296.0 -152.35 L-297.5 -152.4 Q-300.9 -152.25 -302.55 -150.55 -304.45 -148.6 -305.0 -143.8 -306.05 -134.55 -302.05 -104.6 -298.2 -76.05 -295.25 -67.1 -292.3 -58.2 -286.6 -58.0 L-284.8 -58.05 Q-281.8 -58.35 -280.3 -59.5 L-291.9 -65.85 -283.15 -82.7 -277.35 -79.5 Q-278.05 -88.4 -280.4 -106.0 -284.2 -134.05 -287.55 -143.5 -290.55 -151.9 -296.0 -152.35" fill="#673385" fill-rule="evenodd" stroke="none"/>
      <path d="M-254.45 -174.0 L-237.45 -174.05 -207.2 -161.25 -206.7 -155.5 -211.7 -155.25 -203.5 -89.1 -225.05 -85.55 -203.15 -86.85 -201.45 -75.0 Q-200.0 -66.75 -196.25 -64.3 -194.35 -63.05 -190.7 -63.25 -185.5 -63.45 -183.4 -68.55 -182.3 -71.2 -183.1 -79.8 L-184.1 -87.85 -166.15 -88.85 -165.65 -84.15 Q-165.2 -78.85 -165.2 -75.75 -164.55 -58.9 -175.65 -50.3 -184.15 -43.7 -197.2 -43.0 -208.35 -42.35 -217.8 -49.2 -228.6 -56.95 -230.7 -70.75 -232.55 -83.1 -237.3 -119.9 L-241.7 -154.25 -252.15 -153.75 -254.45 -174.0" fill="#673385" fill-rule="evenodd" stroke="none"/>
      <path d="M-236.15 -175.9 L-210.3 -176.4 -209.3 -164.9 -236.15 -175.9" fill="#673385" fill-rule="evenodd" stroke="none"/>
      <path d="M-192.9 -155.4 L-173.65 -147.5 -171.15 -121.75 -187.3 -103.4 -192.9 -155.4 M-198.95 -157.9 L-193.2 -155.55 -198.65 -155.55 -198.95 -157.9" fill="#673385" fill-rule="evenodd" stroke="none"/>
      <path d="M-182.45 -96.05 L-183.3 -104.4 -166.95 -120.9 -164.8 -97.05 -182.45 -96.05" fill="#673385" fill-rule="evenodd" stroke="none"/>
      <path d="M-147.35 -69.25 L-135.95 -69.85 -137.7 -91.0 -118.35 -91.85 -112.85 -91.25 -111.45 -72.1 -100.2 -72.5 -99.85 -67.1 -133.95 -51.35 -145.7 -50.5 -147.35 -69.25" fill="#673385" fill-rule="evenodd" stroke="none"/>
      <path d="M-96.45 -55.5 L-121.2 -53.75 -96.95 -65.25 -96.45 -55.5" fill="#673385" fill-rule="evenodd" stroke="none"/>
      <path d="M-117.2 -161.25 L-111.45 -98.75 -121.45 -99.25 -136.45 -98.75 -141.2 -147.0 -120.2 -169.0 -109.95 -161.25 -117.2 -161.25" fill="#673385" fill-rule="evenodd" stroke="none"/>
      <path d="M-112.45 -174.0 L-133.45 -191.25 -111.2 -191.75 -109.45 -174.0 -112.45 -174.0" fill="#673385" fill-rule="evenodd" stroke="none"/>
      <path d="M-168.45 -177.75 L-166.95 -156.5 -174.95 -156.0 -174.7 -150.5 -200.45 -161.5 -201.7 -176.75 -168.45 -177.75" fill="#673385" fill-rule="evenodd" stroke="none"/>
      <path d="M-161.2 -177.75 L-138.95 -178.25 -127.7 -167.75 -146.95 -149.0 -147.95 -157.25 -159.7 -156.75 -161.2 -177.75" fill="#673385" fill-rule="evenodd" stroke="none"/>
      <path d="M-81.45 -68.5 L-51.7 -80.5 -51.2 -75.5 -41.2 -76.25 -39.45 -57.0 -82.45 -51.5 -81.45 -68.5" fill="#673385" fill-rule="evenodd" stroke="none"/>
      <path d="M-50.7 -103.0 L-49.2 -96.25 -59.7 -95.25 -50.7 -103.0" fill="#673385" fill-rule="evenodd" stroke="none"/>
      <path d="M-62.95 -89.75 L-62.7 -84.25 -93.7 -70.0 -93.7 -74.5 -87.45 -74.75 -88.45 -90.25 -62.95 -89.75" fill="#673385" fill-rule="evenodd" stroke="none"/>
      <path d="M-81.2 -96.5 L-86.7 -141.5 -46.7 -109.0 -72.95 -95.5 -81.2 -96.5" fill="#673385" fill-rule="evenodd" stroke="none"/>
      <path d="M-102.7 -174.25 L-104.45 -192.0 -88.2 -192.5 -64.7 -160.0 -62.2 -136.75 -58.5 -136.7 Q-54.05 -137.15 -50.45 -139.5 L-36.7 -124.5 Q-37.4 -123.5 -38.95 -122.5 -42.05 -120.5 -46.45 -120.5 L-91.45 -156.75 -93.45 -174.25 -102.7 -174.25" fill="#673385" fill-rule="evenodd" stroke="none"/>
      <path d="M-81.45 -194.0 L-53.7 -195.0 -35.2 -142.0 -37.95 -134.25 -45.45 -140.5 Q-44.75 -141.4 -44.1 -143.45 -42.8 -147.5 -42.95 -153.0 -43.15 -160.6 -45.35 -167.0 -47.6 -173.55 -50.95 -175.75 -53.45 -177.35 -57.8 -177.35 L-61.7 -177.0 -60.7 -163.25 -81.45 -194.0" fill="#673385" fill-rule="evenodd" stroke="none"/>
      <path d="M-35.45 -129.5 L-32.35 -137.0 -23.8 -132.85 -21.95 -125.6 -24.55 -121.95 -35.45 -129.5" fill="#673385" fill-rule="evenodd" stroke="none"/>
      <path d="M-18.55 -183.95 Q-13.55 -179.25 -12.4 -174.75 L-21.95 -137.9 -29.95 -140.9 -48.05 -194.3 Q-28.6 -193.35 -18.55 -183.95" fill="#673385" fill-rule="evenodd" stroke="none"/>
      <path d="M-4.95 -176.25 Q-2.9 -171.6 -3.7 -165.6 L-12.45 -164.5 -7.15 -179.75 -4.95 -176.25" fill="#673385" fill-rule="evenodd" stroke="none"/>
      <path d="M-15.95 -153.0 L-7.2 -156.5 Q-6.55 -150.4 -6.95 -145.45 -7.15 -143.0 -7.45 -141.75 L-18.2 -136.75 -15.95 -153.0" fill="#673385" fill-rule="evenodd" stroke="none"/>
      <path d="M-7.7 -138.75 L-8.2 -134.25 -16.2 -134.5 -7.7 -138.75" fill="#673385" fill-rule="evenodd" stroke="none"/>
      <path d="M347.3 -155.15 L336.1 -154.45 330.55 -59.25 341.8 -59.25 340.55 -38.0 289.5 -38.6 290.7 -59.15 296.2 -59.15 298.55 -98.85 278.4 -98.35 276.1 -59.15 281.5 -59.15 280.3 -38.7 233.05 -39.2 234.25 -59.05 244.0 -59.05 245.0 -75.55 256.7 -73.75 245.05 -76.35 249.45 -149.2 239.7 -148.6 240.1 -155.85 249.2 -158.35 240.2 -157.0 240.9 -168.3 288.2 -171.8 287.0 -151.45 281.55 -151.15 279.65 -118.65 299.75 -119.45 301.7 -152.35 296.15 -152.05 297.4 -172.45 348.55 -176.25 347.3 -155.15" fill="#3e6561" fill-rule="evenodd" stroke="none"/>
      <path d="M169.0 -79.85 L186.75 -80.1 Q184.6 -57.15 196.0 -57.15 200.5 -57.15 203.1 -60.65 205.65 -64.0 206.0 -69.85 206.4 -75.55 202.35 -82.25 L233.1 -77.4 233.05 -72.45 Q232.15 -57.4 223.55 -47.55 214.95 -37.75 202.85 -37.9 197.35 -37.95 193.1 -40.15 189.0 -42.25 184.75 -47.1 L184.25 -39.2 166.55 -39.45 169.0 -79.85" fill="#3e6561" fill-rule="evenodd" stroke="none"/>
      <path d="M216.95 -166.55 L235.7 -167.8 234.95 -156.05 173.8 -146.85 Q176.9 -155.3 183.2 -160.5 189.65 -165.85 197.8 -166.4 204.3 -166.8 208.7 -164.6 211.65 -163.15 216.45 -158.6 L216.95 -166.55" fill="#3e6561" fill-rule="evenodd" stroke="none"/>
      <path d="M202.0 -124.65 L209.0 -118.05 217.9 -109.5 Q225.3 -101.65 228.9 -94.35 232.5 -87.1 233.0 -78.95 L201.15 -84.25 Q198.45 -87.95 192.05 -94.35 184.75 -101.7 181.9 -105.15 170.35 -119.1 171.35 -135.05 171.65 -139.7 173.0 -144.45 L228.35 -152.4 234.9 -154.3 233.35 -128.85 214.6 -128.05 Q215.55 -139.05 213.0 -143.9 210.7 -148.3 205.35 -148.0 201.65 -147.8 199.35 -145.2 197.05 -142.55 196.8 -138.25 196.3 -130.75 202.0 -124.65" fill="#3e6561" fill-rule="evenodd" stroke="none"/>
      <path d="M88.05 -73.0 L93.35 -99.4 113.7 -96.3 113.55 -95.25 120.6 -95.25 151.55 -90.45 154.3 -58.25 161.3 -58.25 160.55 -40.0 138.55 -40.0 123.8 -49.5 124.05 -58.0 130.3 -58.0 129.3 -80.75 110.8 -80.5 107.05 -60.5 88.05 -73.0" fill="#3e6561" fill-rule="evenodd" stroke="none"/>
      <path d="M114.15 -98.65 L93.9 -102.05 100.3 -133.75 120.8 -136.55 114.15 -98.65" fill="#3e6561" fill-rule="evenodd" stroke="none"/>
      <path d="M126.0 -137.3 L147.3 -140.5 151.35 -92.35 127.95 -96.3 126.0 -137.3" fill="#3e6561" fill-rule="evenodd" stroke="none"/>
      <path d="M102.8 -140.0 L102.8 -144.5 94.55 -144.0 94.55 -161.75 122.55 -163.0 102.8 -140.0" fill="#3e6561" fill-rule="evenodd" stroke="none"/>
      <path d="M123.8 -42.75 L123.05 -36.5 83.05 -50.75 91.05 -50.5 93.3 -63.5 123.8 -42.75" fill="#3e6561" fill-rule="evenodd" stroke="none"/>
      <path d="M123.05 -159.25 L154.55 -161.25 154.3 -144.0 126.05 -139.65 126.05 -142.5 121.05 -142.25 120.5 -138.9 103.8 -136.35 123.05 -159.25" fill="#3e6561" fill-rule="evenodd" stroke="none"/>
      <path d="M133.8 -36.25 L137.85 -33.4 139.65 -30.85 133.8 -32.75 133.8 -36.25" fill="#3e6561" fill-rule="evenodd" stroke="none"/>
      <path d="M129.4 -25.1 L140.65 -22.1 129.3 -22.5 129.4 -25.1" fill="#3e6561" fill-rule="evenodd" stroke="none"/>
      <path d="M117.3 -22.85 L111.9 -23.25 117.8 -28.35 117.3 -22.85" fill="#3e6561" fill-rule="evenodd" stroke="none"/>
      <path d="M77.8 -44.25 L116.65 -30.75 109.55 -26.25 77.3 -28.5 77.8 -44.25" fill="#3e6561" fill-rule="evenodd" stroke="none"/>
      <path d="M72.3 -46.35 L71.55 -28.75 41.05 -30.75 32.55 -50.35 51.8 -48.75 51.9 -53.35 72.3 -46.35" fill="#3e6561" fill-rule="evenodd" stroke="none"/>
      <path d="M76.65 -63.35 L76.65 -52.85 54.9 -60.6 54.9 -64.85 76.65 -63.35" fill="#3e6561" fill-rule="evenodd" stroke="none"/>
      <path d="M23.55 -21.25 L15.9 -59.5 16.9 -66.25 38.3 -20.75 23.55 -21.25" fill="#3e6561" fill-rule="evenodd" stroke="none"/>
      <path d="M-0.95 -78.85 L9.15 -83.25 17.8 -29.5 -15.95 -33.25 -12.7 -51.25 -3.45 -50.5 -0.95 -78.85" fill="#3e6561" fill-rule="evenodd" stroke="none"/>
      <path d="M20.4 -89.75 L35.4 -99.1 38.65 -98.75 36.65 -67.0 29.15 -69.5 20.4 -89.75" fill="#3e6561" fill-rule="evenodd" stroke="none"/>
      <path d="M2.65 -85.85 L4.8 -110.6 27.9 -98.25 2.65 -85.85" fill="#3e6561" fill-rule="evenodd" stroke="none"/>
      <path d="M15.8 -125.1 L28.55 -102.6 10.4 -112.5 11.55 -125.1 15.8 -125.1" fill="#3e6561" fill-rule="evenodd" stroke="none"/>
      <path d="M43.65 -107.1 L43.8 -101.35 40.15 -102.0 35.9 -108.35 43.65 -107.1" fill="#3e6561" fill-rule="evenodd" stroke="none"/>
      <path d="M43.55 -110.35 L33.4 -112.0 26.3 -122.75 44.05 -125.5 43.55 -110.35" fill="#3e6561" fill-rule="evenodd" stroke="none"/>
      <path d="M39.4 -145.85 L53.3 -152.85 53.3 -142.0 41.3 -141.25 41.3 -132.0 31.55 -130.6 39.4 -145.85" fill="#3e6561" fill-rule="evenodd" stroke="none"/>
      <path d="M44.55 -169.0 L67.05 -172.5 67.05 -165.5 55.9 -158.35 36.15 -155.35 44.55 -169.0" fill="#3e6561" fill-rule="evenodd" stroke="none"/>
      <path d="M23.55 -166.1 L24.05 -167.0 36.65 -169.75 28.8 -155.35 23.55 -166.1" fill="#3e6561" fill-rule="evenodd" stroke="none"/>
      <path d="M3.15 -167.0 L5.05 -172.5 16.05 -170.75 14.05 -168.5 3.15 -167.0" fill="#3e6561" fill-rule="evenodd" stroke="none"/>
      <path d="M6.9 -149.0 L4.05 -147.85 -1.95 -148.75 -1.2 -159.25 11.05 -164.5 6.9 -149.0" fill="#3e6561" fill-rule="evenodd" stroke="none"/>
      <path d="M9.3 -133.35 L9.55 -146.0 16.05 -148.85 36.05 -148.0 25.05 -132.6 9.3 -133.35" fill="#3e6561" fill-rule="evenodd" stroke="none"/>
      <path d="M-192.95 -96.0 L-196.7 -89.0 -121.7 -93.75 -73.2 -92.0 -51.45 -88.75 -119.2 -91.5 -240.45 -83.75 -199.7 -90.25 -155.7 -140.0 -149.2 -144.75 -151.95 -137.5 -192.95 -96.0" fill="#1a1a1b" fill-rule="evenodd" stroke="none"/>
      <path d="M32.55 -112.5 L237.8 -79.0 289.3 -66.75 35.8 -108.0 32.55 -112.5" fill="#1d1d1d" fill-rule="evenodd" stroke="none"/>
      <path d="M104.05 -133.9 L103.85 -136.55 282.7 -165.25 228.05 -151.9 104.05 -133.9" fill="#1d1d1d" fill-rule="evenodd" stroke="none"/>
      <path d="M88.55 -137.25 L103.85 -136.55 104.05 -133.9 36.85 -124.55 38.05 -128.4 88.55 -137.25" fill="#3c3f3e" fill-rule="evenodd" stroke="none"/>
      <path d="M-291.8 -199.25 L-154.0 -142.55 -152.65 -140.55 -156.3 -139.4 -321.8 -209.75 -291.8 -199.25" fill="#1a1a1b" fill-rule="evenodd" stroke="none"/>
    </g>
  </defs>
</svg>
