<svg xmlns="http://www.w3.org/2000/svg" viewBox="0 0 108.42 30.013" height="113.437" width="409.778"><g fill="#fff"><path d="M32.908 107.607q.568-8.597 1.111-17.22l5.188-.667 3.41 6.622 3.36-6.696 5.163.396 1.384 17.343-5.855.173q-.223-4.62-.42-9.24l-.198-.025-1.31 3.929-4.323.049-1.136-3.681-.198.025-.544 9.116-5.632-.124zM61.344 103.482l-.074-1.433q-.173-.05-.445-.1-.272-.049-.494-.049-.717 0-1.186.247-.494.248-.494.791 0 .494.37.741.371.272.94.272.444-.025.815-.148.345-.148.568-.321zm4.966-4.2.123 4.768q.025.642.173 1.383.173.741.321 1.285.148.519.173.544l-4.793.518-.494-1.334q-.617.667-1.457 1.013-.865.37-1.952.395-1.408 0-2.495-.469-1.088-.445-1.705-1.408-.643-.964-.643-2.495.025-1.606.84-2.52.816-.915 2.051-1.31 1.21-.395 2.52-.42.593 0 1.161.074.544.074 1.087.297-.024-.988-.593-1.384-.568-.395-1.433-.37-.543 0-1.186.098-.642.1-1.235.223-.617.123-.988.222-.395.074-.42.099-.296-2.05-.618-4.076l.79-.198q.742-.173 1.903-.346t2.397-.198q1.779 0 3.211.569 1.433.568 2.298 1.828.865 1.235.964 3.212zM73.795 93.92l.297 1.557q.494-.692 1.433-1.186.963-.494 2.174-.568 2.347-.05 3.632 1.26 1.26 1.334 1.334 3.656l.074 8.721-5.584.223.025-8.005q-.025-.593-.37-.939-.371-.37-1.013-.395-.692.025-1.112.494-.42.47-.42 1.137l.099 7.634-5.361.173q-.1-6.696-.223-13.391l5.015-.37zM92.127 103.482l-.074-1.433q-.173-.05-.445-.1-.272-.049-.494-.049-.716 0-1.186.247-.494.248-.494.791 0 .494.37.741.371.272.94.272.444-.025.815-.148.346-.148.568-.321zm4.966-4.2.123 4.768q.025.642.173 1.383.173.741.322 1.285.148.519.172.544l-4.792.518-.495-1.334q-.617.667-1.457 1.013-.865.37-1.952.395-1.408 0-2.495-.469-1.087-.445-1.705-1.408-.642-.964-.642-2.495.024-1.606.84-2.52.815-.915 2.05-1.31 1.21-.395 2.52-.42.593 0 1.161.074.544.074 1.087.297-.024-.988-.592-1.384-.569-.395-1.433-.37-.544 0-1.186.098-.643.1-1.236.223-.617.123-.988.222-.395.074-.42.099-.296-2.05-.617-4.076l.79-.198q.741-.173 1.903-.346 1.16-.173 2.396-.198 1.779 0 3.212.569 1.433.568 2.297 1.828.865 1.235.964 3.212zM106.481 98.293q-.964.05-1.532.766-.568.717-.593 1.754.025 1.161.593 1.829.593.642 1.581.642.865-.025 1.433-.692.593-.667.618-1.853-.025-1.112-.593-1.779-.568-.642-1.507-.667zm2.693-4.323 4.496.198.05 12.08q-.025 2.52-1.087 4.126-1.087 1.631-2.916 2.397-1.828.766-4.1.766-1.236-.025-2.422-.223-1.161-.197-1.927-.42l-.815-.222.89-4.57.42.098 1.062.247q.642.149 1.334.247.691.1 1.26.1.79 0 1.531-.297.717-.297 1.162-.865.469-.568.469-1.408-.494.716-1.26 1.112-.79.395-1.779.395-2.1 0-3.582-.815-1.482-.84-2.298-2.347-.79-1.532-.79-3.607 0-1.977.79-3.583t2.323-2.544q1.507-.964 3.705-.989.89.025 1.705.37.815.347 1.31.866.222-.544.469-1.112zM122.515 97.75q-.766.025-1.21.519-.42.518-.42 1.111l3.063-.074q0-.691-.37-1.111-.371-.445-1.063-.445zm4.916 4.941.964 4.15q-.074.05-.79.322-.717.271-1.878.519-1.186.271-2.693.296-2.15-.025-3.879-.84-1.73-.815-2.742-2.396-1.013-1.582-1.038-3.855.025-2.174.939-3.755.939-1.581 2.545-2.47 1.605-.89 3.631-.94 1.656 0 2.866.495 1.186.519 1.952 1.383.766.865 1.161 1.952.37 1.087.346 2.224.025.543-.025 1.087-.05.519-.222 1.013v.024h-.05l-7.584.124q.074.519.445.84.345.321.864.445.52.123 1.087.123.84 0 1.829-.173 1.012-.197 2.272-.568zM130.618 94.217l4.72-.272q.222 1.013.42 2.026.765-1.31 1.753-1.779.989-.444 2.125-.42.296 0 .568.074.272.05.297.05l-.445 5.04-.42-.05-.79-.05q-1.211 0-1.977.717t-.766 2.05l.124 5.856-5.362.124-.247-13.366z" transform="translate(-32.908 -83.523)"/></g><g fill="#fff"><path d="m60.012 86.157.122 2.114q.01.112.01.224v.214q0 .803-.193 1.382-.204.57-.59.915-.386.356-.935.529-.54.173-1.24.173-.753 0-1.404-.204-.66-.203-1.24-.62l.701-1.82q.417.255.783.387.366.132.66.132.275 0 .479-.081.213-.082.356-.244.162-.183.223-.651.061-.478.02-1.24l-.07-1.19-.855.02-.05-1.89 3.944-.072.02 1.911-.741.01zM64.109 89.796l-.03-.59q-.072-.02-.184-.04-.111-.02-.203-.02-.295 0-.488.101-.203.102-.203.326 0 .203.152.305.153.112.387.112.183-.01.335-.061.142-.061.234-.133zm2.043-1.728.051 1.962q.01.265.071.57.072.305.133.528.06.214.07.224l-1.972.213-.203-.549q-.254.275-.6.417-.356.153-.803.163-.58 0-1.027-.193-.447-.183-.701-.58-.265-.396-.265-1.027.01-.66.346-1.037.335-.376.844-.538.498-.163 1.037-.173.244 0 .478.03.223.03.447.122-.01-.406-.244-.57-.234-.162-.59-.152-.223 0-.488.041-.264.04-.508.091-.254.051-.407.092-.162.03-.173.04-.122-.843-.254-1.677l.326-.081q.305-.071.783-.143.477-.07.986-.08.732 0 1.321.233.59.234.946.752.356.509.396 1.322zM69.223 88.658q.01.478.285.732.264.264.721.264.245 0 .54-.071.294-.061.6-.173l.355 1.8q-.325.162-.803.294-.468.122-.966.133-.834-.01-1.525-.336-.691-.325-1.118-.956-.417-.64-.427-1.565.01-.976.447-1.647.447-.671 1.17-1.007.731-.346 1.605-.346.356 0 .753.082.396.07.742.203l-.356 1.79q-.274-.092-.539-.143-.264-.05-.457-.05-.275.01-.498.121-.234.112-.377.336-.142.213-.152.539zM76.279 88.587l1.8 2.49-2.339.53-1.322-2.105v1.931l-2.094.071q-.05-3.894-.092-7.798l2.176-.142.01 4.23 1.22-2.034 2.278.417-1.637 2.41zM81.332 89.715q.386-.01.63-.285.244-.284.254-.721 0-.468-.244-.763-.254-.295-.67-.305-.316.01-.55.285-.233.264-.254.752.01.366.132.59.112.234.305.345.183.102.397.102zm-2.898 1.78-.101-7.809.59-.02.731-.061.62-.061.265-.02.04 2.765q.224-.234.55-.356.335-.122.66-.122.794.01 1.404.366.6.356.935.996.346.651.356 1.546-.01.823-.376 1.454-.366.64-.987 1.006-.62.376-1.393.376-.406 0-.772-.162-.366-.173-.57-.448-.02.265-.05.519l-1.902.03zM87.96 89.664q.367-.01.58-.284.214-.285.224-.753-.01-.478-.244-.722-.244-.254-.59-.264-.345.01-.58.275-.233.274-.243.732 0 .264.081.488.082.233.275.376.183.152.498.152zm-.04-3.904q.864.01 1.546.356.68.346 1.077.976.397.63.407 1.474-.01.895-.376 1.576-.366.691-1.037 1.078-.671.396-1.576.406-.946-.01-1.627-.396-.681-.376-1.047-1.027-.366-.65-.366-1.454.01-.864.407-1.535.396-.671 1.067-1.057.671-.387 1.525-.397zM97.569 90.935q-1.078.366-2.145.742-.519-.823-1.038-1.637l-.884 1.515-2.359-.274 1.84-2.664-1.86-2.48 2.318-.357.844 1.373.823-1.393 2.39.356-1.79 2.42 1.86 2.4zM102.947 87.824q0 .519.244.854.234.346.63.519.407.162.895.162.315 0 .63-.07.326-.072.651-.184 0 .173.01.407l.02.64q.021.417.042 1.129-.407.142-.875.223-.457.082-.874.092-.793 0-1.505-.224-.712-.223-1.27-.67-.56-.448-.885-1.12-.326-.68-.326-1.595.01-1.292.56-2.156.538-.864 1.474-1.301.925-.437 2.084-.437.376 0 .762.06.397.052.794.153-.102 1.058-.214 2.115-.264-.092-.56-.142-.284-.061-.558-.061-.488 0-.875.172-.386.173-.62.53-.234.355-.234.904zM109.576 89.664q.366-.01.58-.284.213-.285.223-.753-.01-.478-.244-.722-.244-.254-.59-.264-.345.01-.579.275-.234.274-.244.732 0 .264.081.488.082.233.275.376.183.152.498.152zm-.04-3.904q.864.01 1.545.356.681.346 1.078.976.396.63.406 1.474-.01.895-.376 1.576-.366.691-1.037 1.078-.671.396-1.576.406-.945-.01-1.627-.396-.68-.376-1.047-1.027-.366-.65-.366-1.454.01-.864.407-1.535.396-.671 1.067-1.057.671-.387 1.525-.397zM115.371 85.862l.122.64q.204-.284.59-.488.397-.203.895-.234.966-.02 1.494.519.519.549.55 1.505l.03 3.589-2.298.091.01-3.294q-.01-.244-.152-.386-.153-.153-.417-.163-.285.01-.458.203-.172.194-.172.468l.04 3.142-2.206.07q-.04-2.754-.091-5.51l2.063-.152zM123.902 87.722h-1.281v.692q-.01.335-.01.691.01.305.162.447.152.153.386.153.133 0 .305-.02.173-.02.305-.051l.143-.02q.03.864.07 1.738-.02.01-.213.081-.193.061-.498.122-.295.061-.63.072-.64 0-1.129-.245-.488-.233-.762-.721-.275-.488-.285-1.23v-1.709h-.925l.02-1.657.905-.04.01-1.22.315-.041q.295-.03.773-.112.488-.081 1.037-.214l.01 1.515q.661-.02 1.322-.03l-.03 1.8zM127.308 87.438q-.316.01-.499.213-.172.214-.172.458l1.26-.03q0-.285-.152-.458-.153-.183-.437-.183zm2.023 2.033.396 1.708q-.03.02-.325.132-.295.112-.773.214-.488.112-1.108.122-.884-.01-1.596-.346-.712-.335-1.129-.986-.417-.65-.427-1.586.01-.895.387-1.546.386-.65 1.047-1.016.66-.366 1.494-.387.682 0 1.18.204.488.213.803.57.315.355.478.802.152.448.142.915.01.224-.01.448-.02.213-.092.417v.01h-.02l-3.121.05q.03.214.183.346.142.132.356.183.213.051.447.051.346 0 .752-.071.417-.081.936-.234zM132.716 85.862l.122.64q.204-.284.59-.488.397-.203.895-.234.966-.02 1.494.519.519.549.55 1.505l.03 3.589-2.298.091.01-3.294q-.01-.244-.152-.386-.153-.153-.417-.163-.285.01-.458.203-.172.194-.172.468l.04 3.142-2.206.07q-.04-2.754-.091-5.51l2.063-.152zM141.247 87.722h-1.281v.692q-.01.335-.01.691.01.305.162.447.153.153.386.153.133 0 .305-.02.173-.02.305-.051l.143-.02q.03.864.071 1.738-.02.01-.214.081-.193.061-.498.122-.295.061-.63.072-.64 0-1.129-.245-.488-.233-.762-.721-.275-.488-.285-1.23v-1.709h-.925l.02-1.657.905-.04.01-1.22.315-.041q.295-.03.773-.112.488-.081 1.037-.214l.01 1.515q.661-.02 1.322-.03l-.03 1.8z" transform="translate(-32.908 -83.523)"/></g></svg>